<?xml version="1.0" encoding="utf-8"?>
<!-- Generator: Adobe Illustrator 18.1.1, SVG Export Plug-In . SVG Version: 6.00 Build 0)  -->
<svg version="1.1" id="Camada_1" xmlns="http://www.w3.org/2000/svg" xmlns:xlink="http://www.w3.org/1999/xlink" x="0px" y="0px"
	 viewBox="0 0 756.5 319.6" enable-background="new 0 0 756.5 319.6" xml:space="preserve">
<g>
	<g>
		<g>
			<path fill="#F39100" d="M503.8,242.1l-2-2.3c-3.2-3.7-79-90.1-79.2-133.6c-0.2-44.4,35.8-80.7,80.2-80.9l0.4,0
				c44.2,0,80.4,36,80.6,80.2c0.2,43.5-74.8,130.6-78,134.3L503.8,242.1z M503.2,30.6l-0.3,0c-41.5,0.2-75.2,34.1-75,75.6
				c0.2,37.8,63.7,113.7,75.9,127.8c12-14.3,74.9-90.7,74.8-128.5C578.4,64.3,544.6,30.6,503.2,30.6z"/>
		</g>
		<g>
			<path fill="#F39100" d="M503.2,43.9c-33.3,0-60.2,27-60.2,60.2s27,60.2,60.2,60.2s60.2-27,60.2-60.2S536.5,43.9,503.2,43.9z
				 M495.1,121.9c-0.5-4.1,3-7.6,7.1-7.2c3,0.3,5.4,2.7,5.8,5.7c0.5,4.1-3,7.6-7.1,7.2C497.9,127.3,495.5,124.9,495.1,121.9z
				 M517.9,158.2c-0.3,0.1-6.1-4.7-9.3-9.2c-3.2-4.5-4.1-4.2-5.5-11.2c-0.8-4.1-3.2-7-3.4-8.7c0.7,0.1,1.2,0.3,1.9,0.3
				c1.7,0,3.2-0.5,4.5-1.3c1.7,3,10.2,17.7,10.8,19.6C517.8,149.7,518.2,158.1,517.9,158.2z M523,141.9c-1.9-2.1-3.5-3.9-6.7-7.1
				c-3.2-3.2-8.2-6.1-9.1-7.5c1.3-1.3,2.4-3.1,2.6-5.1l0.1,0.4c0,0,14.2,12.5,16.8,18.1c2.4,5.4,3.8,9.4,3.8,9.4
				S524.9,144.1,523,141.9z M547.5,115.1c-2.7,0-10.9-1.6-11.9-2.2c-1.1-0.4-11.2-4.1-24.3-8.9C498.1,99.5,490,99,490,99l3.7,3.1
				c0,0,21.2,5.3,36.8,12.4s16.4,12.3,16.4,12.3s-7.3-1.1-14.6-5.7c-7.3-4.6-22.4-10.7-26.4-12c-4-1.3-9.9-2.7-9.9-2.7l4.3,3.9
				c0,0,22.7,8.4,30.7,15.8c8,7.4,10.5,12.2,10.5,12.2s-7.3-2.9-11.1-4.1c-4-1.2-4.5-2.5-8-5.9c-2.9-2.9-7.2-6.4-12.4-7l0,0
				c0-4.3-3.3-8-7.6-8.3c-3-0.2-5.8,1.2-7.4,3.5c-4.5-3.7-13.6-11.2-18-14.4c-6.1-4.2-16.6-8-16.6-8l4.1-11.7l3.8,0.8
				c0,0,5.8-12.5,11.7-19.4s10.6-9.9,10.6-9.9l-2.6,6c0,0-8,11-11.7,17.3c-3.7,6.2-3.6,8.8-3.6,8.8s18.2-23.8,21.1-26.1
				c2.8-2.5,8.8-6,8.8-6s-1.4,5.6-5.7,8.8c-4.4,3.2-21.2,23.8-21.2,23.8l0.5,0.5c0,0,20.5-19.2,24.8-22.4c4.4-3.2,15.2-7.1,15.2-7.1
				s-3.9,6.7-9.9,9.3c-5.8,2.8-17.9,11.6-23.8,15.9c-5.9,4.1-6.1,4.4-6.1,4.4l0.8,0.5c0,0,28.4-18,39.6-20.7
				c11.1-2.8,13.4-1.9,13.4-1.9s-7.2,5.7-12.8,7c-5.7,1.4-23.6,8.9-30.8,12c-5.3,2.3-7.7,3.5-8.6,4c-0.4,0.1-0.5,0.3-0.5,0.3
				s35.2-12.1,47.2-12.7c11.9-0.4,16.2,0.2,16.2,0.2s-11.4,6.6-13.9,6.8c-2.5,0.1-35.7,3.9-40.8,4.6c-5.2,0.7-7.6,1.8-7.6,1.8
				l0.8,0.9c0,0,25.2-4.2,47.2-2.5c21.9,1.9,21.6,3.8,21.6,3.8s-10.5,3.4-18.4,2.3c-8-1.3-24.9-2.5-33.3-2.7
				c-8.4-0.4-15.8-0.2-15.8-0.2l1.3,1.1c0,0,15,0.1,37.3,3.4c22.3,3.4,31.2,8.8,31.2,8.8s-3.1-0.3-9.4,0c-6.2,0.3-10.1-0.5-12.7-1.6
				c-2.5-1.1-16.4-4.8-23.7-6.7c-7.3-2-17.4-2.3-19-2.5c-1.6-0.3-2.3-0.1-2.3-0.1l1.6,1.1c0,0,21,3.5,39.2,10
				c18.2,6.6,23.9,10.5,23.9,10.5S550.1,115.1,547.5,115.1z"/>
			<path fill="#F39100" d="M505.8,121.1c0-2.5-2-4.4-4.5-4.2c-2.1,0.1-3.9,1.9-4,4c-0.1,2.5,1.8,4.5,4.3,4.5
				C504,125.4,505.9,123.4,505.8,121.1z M498.6,120.8c0.2-1.4,1.3-2.5,2.6-2.6c2-0.3,3.7,1.4,3.4,3.4c-0.2,1.4-1.3,2.5-2.6,2.6
				C500,124.4,498.3,122.7,498.6,120.8z"/>
		</g>
		<g>
			<g>
				<path fill="#13846A" d="M43.5,157.9c0,7.6,1.1,13.4,3.4,17.3c2.3,3.9,7.1,5.9,14.3,5.9c4.4,0,8.4-0.6,12.2-1.7
					c3.7-1.1,7-2.5,9.9-4l4.9,15.2c-3.8,2.5-8,4.4-12.6,5.7s-10.4,2-17.4,2c-12,0-20.9-3.1-26.6-9.4c-5.7-6.3-8.6-16.5-8.6-30.6
					V74.7h-22V57.5h22L28.3,18h15.2v39.5h42.6v17.2H43.5V157.9z"/>
			</g>
			<g>
				<path fill="#13846A" d="M138.4,82.1c1.9-3.3,4.1-6.5,6.7-9.8c2.6-3.3,5.5-6.2,8.7-8.8c3.2-2.6,6.8-4.7,10.7-6.4
					c3.9-1.6,8.3-2.5,13.3-2.5c5.7,0,10.1,0.7,13.2,2.1c3,1.4,4.9,2.3,5.4,2.7l-6,20.9c-4-3.4-9.3-5.1-16-5.1
					c-7.8,0-14.8,2.2-21,6.6c-6.2,4.4-11.2,10.6-15,18.6v95.2h-21.2V57.5h16.9L138.4,82.1z"/>
			</g>
			<g>
				<path fill="#13846A" d="M219.9,14.6c0-4,1.2-7.4,3.7-10.3c2.5-2.9,6.1-4.3,10.9-4.3c5,0,8.6,1.4,11,4.3
					c2.4,2.9,3.6,6.3,3.6,10.3s-1.2,7.4-3.6,10.2c-2.4,2.8-6.1,4.1-11,4.1c-4.8,0-8.4-1.4-10.9-4.1C221.2,22,219.9,18.6,219.9,14.6z
					 M245.1,195.6h-21.2V57.5h21.2V195.6z"/>
			</g>
			<g>
				<path fill="#13846A" d="M290.3,2.9h21.2v76.9c1.9-2.7,4.4-5.5,7.6-8.4c3.1-3,6.8-5.6,10.9-8c4.1-2.4,8.7-4.4,13.7-6
					c5-1.6,10.5-2.4,16.4-2.4c9,0,16.8,1.9,23.6,5.6c6.8,3.7,12.4,8.8,16.9,15.2c4.5,6.4,7.9,13.8,10.2,22.3
					c2.3,8.5,3.4,17.4,3.4,26.7c0,12.2-1.4,22.9-4.1,32c-2.8,9.2-6.7,16.8-11.7,23c-5.1,6.2-11.1,10.8-18.2,13.9
					c-7.1,3-14.8,4.6-23.2,4.6c-10.5,0-19.7-2.6-27.7-7.9c-8-5.2-13.9-11.6-17.7-19l-4.3,24.3h-16.9V2.9z M311.4,129.9
					c0,7.1,1.1,13.6,3.3,19.6c2.2,6,5.2,11.3,9,15.7c3.8,4.5,8.3,8,13.4,10.4c5.1,2.5,10.7,3.7,16.6,3.7c5.1,0,10.1-1,14.9-2.9
					c4.8-1.9,9-5,12.6-9.3c3.6-4.3,6.5-9.9,8.7-16.9c2.2-7,3.3-15.5,3.3-25.6c0-17.2-3.4-29.9-10.3-38.2
					c-6.9-8.3-15.7-12.4-26.6-12.4c-9.3,0-17.8,2.3-25.5,7c-7.6,4.7-14.1,10.6-19.4,17.9V129.9z"/>
			</g>
		</g>
		<g>
			<g>
				<path fill="#13846A" d="M638.9,181.6c11.6,0,19.9-2.1,24.9-6.4c5-4.3,7.4-9.5,7.4-15.6c0-7.6-3.2-13.4-9.7-17.3
					c-6.5-3.9-14.4-7.2-23.7-9.9c-6.1-1.7-11.7-3.7-16.7-6c-5.1-2.3-9.4-5-13.2-8.3c-3.7-3.2-6.6-7.1-8.6-11.4c-2-4.4-3-9.6-3-15.7
					c0-11.6,4.4-20.5,13.3-26.7c8.9-6.2,20.7-9.3,35.6-9.3c8,0,15.6,0.8,22.9,2.3c7.2,1.5,13.6,3.6,19.2,6.3l-4.9,16.3
					c-5.1-2.5-10.7-4.4-16.6-5.9c-5.9-1.4-12.2-2.1-18.9-2.1c-10.3,0-17.9,1.7-22.9,5.1c-5,3.4-7.4,8-7.4,13.7
					c0,6.7,2.6,11.7,7.7,15.2s12,6.5,20.6,9.2c15.4,4.8,27.1,10.4,35,17c7.9,6.6,11.9,15.9,11.9,27.9c0,11.6-4.2,20.9-12.6,27.9
					c-8.4,7-21.5,10.4-39.5,10.4c-8.8,0-17-0.8-24.6-2.3c-7.6-1.5-14-3.7-19.2-6.6l4.9-15.7c5,2.3,10.8,4.2,17.4,5.7
					C624.9,180.9,631.8,181.6,638.9,181.6z"/>
			</g>
		</g>
	</g>
	<g>
		<g>
			<path fill="#4D4D4D" d="M34.6,297.4c-1.8,1.4-4,2.5-6.6,3.3c-2.7,0.8-5.5,1.2-8.5,1.2c-3.3,0-6.3-0.5-8.7-1.6
				c-2.5-1.1-4.5-2.6-6.1-4.7c-1.6-2-2.8-4.4-3.5-7.3c-0.8-2.8-1.1-6-1.1-9.5c0-7.5,1.7-13.2,5-17.2c3.3-3.9,8.1-5.9,14.4-5.9
				c2,0,4,0.2,6,0.7c2,0.4,3.8,1.3,5.4,2.5c1.6,1.2,2.9,3,3.9,5.2c1,2.3,1.5,5.2,1.5,8.9c0,1.9-0.2,4.1-0.5,6.4H7.3
				c0,2.6,0.3,4.9,0.8,6.9c0.5,2,1.4,3.7,2.5,5.1c1.1,1.4,2.6,2.4,4.4,3.2c1.8,0.7,4,1.1,6.6,1.1c2,0,4-0.4,6-1.1
				c2-0.7,3.5-1.5,4.5-2.5L34.6,297.4z M19.5,262c-3.5,0-6.2,0.9-8.3,2.7c-2.1,1.8-3.3,4.9-3.7,9.3h21.8c0-4.5-0.9-7.6-2.6-9.4
				C25,262.9,22.6,262,19.5,262z"/>
		</g>
		<g>
			<path fill="#4D4D4D" d="M75.5,301v-25.1c0-4.6-0.7-8-2-10.3c-1.3-2.3-3.7-3.5-7.3-3.5c-3.1,0-5.7,0.8-7.7,2.5
				c-2,1.7-3.5,3.8-4.3,6.3V301h-7v-44h4.9l1.3,5.4h0.4c1.4-1.9,3.3-3.4,5.7-4.6c2.4-1.2,5.2-1.8,8.5-1.8c2.4,0,4.5,0.3,6.3,0.8
				c1.8,0.6,3.3,1.5,4.5,3c1.2,1.4,2.1,3.3,2.7,5.7c0.6,2.4,0.9,5.4,0.9,9V301H75.5z"/>
		</g>
		<g>
			<path fill="#4D4D4D" d="M125.4,298.1c-1.8,1.3-3.8,2.3-6.3,3c-2.4,0.7-4.9,1-7.6,1c-3.4,0-6.3-0.5-8.6-1.6
				c-2.3-1.1-4.3-2.6-5.8-4.7c-1.5-2-2.6-4.5-3.3-7.3c-0.7-2.8-1-6-1-9.5c0-7.5,1.6-13.2,4.9-17.1c3.3-4,8-5.9,14.2-5.9
				c2.8,0,5.2,0.2,7.2,0.7c2,0.4,3.7,1.1,5.3,1.9l-2,6.1c-1.4-0.8-2.8-1.4-4.5-1.8c-1.6-0.4-3.4-0.7-5.3-0.7
				c-8.3,0-12.5,5.6-12.5,16.9c0,2.2,0.2,4.4,0.7,6.4c0.4,2,1.2,3.8,2.2,5.4c1,1.6,2.4,2.8,4.1,3.7c1.7,0.9,3.7,1.4,6.2,1.4
				c2.1,0,4-0.3,5.7-1c1.7-0.6,3-1.4,4.1-2.2L125.4,298.1z"/>
		</g>
		<g>
			<path fill="#4D4D4D" d="M130.6,278.9c0-7.5,1.7-13.2,5-17.1c3.3-4,8.1-5.9,14.3-5.9c3.3,0,6.2,0.5,8.6,1.6c2.4,1.1,4.4,2.6,6,4.7
				c1.6,2,2.8,4.5,3.5,7.3c0.8,2.8,1.1,6,1.1,9.5c0,7.5-1.7,13.2-5,17.1c-3.3,4-8.1,5.9-14.3,5.9c-3.3,0-6.2-0.5-8.6-1.6
				c-2.4-1.1-4.4-2.6-6-4.7c-1.6-2-2.8-4.5-3.5-7.3C131,285.6,130.6,282.4,130.6,278.9z M137.9,278.9c0,2.2,0.2,4.4,0.7,6.4
				c0.4,2.1,1.1,3.8,2.1,5.4c0.9,1.5,2.2,2.8,3.7,3.7c1.5,0.9,3.4,1.4,5.5,1.4c8,0.1,12-5.6,12-16.9c0-2.3-0.2-4.5-0.7-6.5
				c-0.4-2.1-1.1-3.8-2.1-5.4c-0.9-1.5-2.2-2.7-3.7-3.7c-1.5-0.9-3.4-1.4-5.5-1.4C141.9,262,137.9,267.6,137.9,278.9z"/>
		</g>
		<g>
			<path fill="#4D4D4D" d="M208.6,301v-25.1c0-4.6-0.7-8-2-10.3c-1.3-2.3-3.7-3.5-7.3-3.5c-3.1,0-5.7,0.8-7.7,2.5
				c-2,1.7-3.5,3.8-4.3,6.3V301h-7v-44h4.9l1.3,5.4h0.4c1.4-1.9,3.3-3.4,5.7-4.6c2.4-1.2,5.2-1.8,8.5-1.8c2.4,0,4.5,0.3,6.3,0.8
				c1.8,0.6,3.3,1.5,4.5,3c1.2,1.4,2.1,3.3,2.7,5.7c0.6,2.4,0.9,5.4,0.9,9V301H208.6z"/>
		</g>
		<g>
			<path fill="#4D4D4D" d="M222.7,256.9h6.9v-8.7l7-2v10.7h12v6.2h-12v24.4c0,3.1,0.4,5.2,1.1,6.5c0.8,1.3,2.1,1.9,3.9,1.9
				c1.5,0,2.8-0.2,3.9-0.5c1.1-0.3,2.2-0.7,3.5-1.3l1.6,5.4c-1.6,0.8-3.3,1.4-5.2,1.8c-1.9,0.5-3.9,0.7-6.1,0.7c-3.6,0-6.1-1-7.6-3
				c-1.5-2-2.2-5.4-2.2-10.2v-25.7h-6.9V256.9z"/>
		</g>
		<g>
			<path fill="#4D4D4D" d="M279.1,263.7c-1.8-0.6-3.4-0.9-5-0.9c-2.5,0-4.5,0.7-6,2.1c-1.5,1.4-2.4,3.1-2.7,5.2V301h-7v-44h4.9
				l1.3,5.4h0.4c1.1-2,2.5-3.5,4-4.6c1.6-1.1,3.5-1.6,5.9-1.6c1.7,0,3.6,0.3,5.7,0.9L279.1,263.7z"/>
		</g>
		<g>
			<path fill="#4D4D4D" d="M320.4,297.4c-1.8,1.4-4,2.5-6.6,3.3c-2.7,0.8-5.5,1.2-8.5,1.2c-3.3,0-6.3-0.5-8.7-1.6
				c-2.5-1.1-4.5-2.6-6.1-4.7c-1.6-2-2.8-4.4-3.5-7.3c-0.8-2.8-1.1-6-1.1-9.5c0-7.5,1.7-13.2,5-17.2c3.3-3.9,8.1-5.9,14.4-5.9
				c2,0,4,0.2,6,0.7c2,0.4,3.8,1.3,5.4,2.5c1.6,1.2,2.9,3,3.9,5.2c1,2.3,1.5,5.2,1.5,8.9c0,1.9-0.2,4.1-0.5,6.4h-28.3
				c0,2.6,0.3,4.9,0.8,6.9c0.5,2,1.4,3.7,2.5,5.1c1.1,1.4,2.6,2.4,4.4,3.2c1.8,0.7,4,1.1,6.6,1.1c2,0,4-0.4,6-1.1
				c2-0.7,3.5-1.5,4.5-2.5L320.4,297.4z M305.3,262c-3.5,0-6.2,0.9-8.3,2.7c-2.1,1.8-3.3,4.9-3.7,9.3h21.8c0-4.5-0.9-7.6-2.6-9.4
				C310.8,262.9,308.4,262,305.3,262z"/>
		</g>
		<g>
			<path fill="#4D4D4D" d="M375.9,289c0-1.8-0.5-3.1-1.6-4.1c-1.1-1-2.4-1.8-3.9-2.5c-1.6-0.7-3.3-1.3-5.1-1.9
				c-1.8-0.6-3.6-1.4-5.1-2.4c-1.6-1-2.9-2.2-3.9-3.7c-1.1-1.5-1.6-3.6-1.6-6.2c0-4.2,1.2-7.3,3.6-9.3c2.4-2,5.8-3,10-3
				c3.2,0,5.8,0.3,8,0.8c2.1,0.6,4,1.2,5.6,2l-1.7,5.8c-1.4-0.6-3-1.2-4.9-1.7c-1.9-0.5-3.9-0.7-6.1-0.7c-2.6,0-4.5,0.4-5.7,1.3
				c-1.2,0.9-1.8,2.4-1.8,4.6c0,1.5,0.5,2.7,1.6,3.6c1.1,0.9,2.4,1.6,3.9,2.3c1.6,0.7,3.3,1.3,5.1,2c1.8,0.6,3.6,1.5,5.1,2.6
				c1.6,1.1,2.9,2.4,3.9,4c1.1,1.6,1.6,3.7,1.6,6.4c0,1.9-0.3,3.6-0.9,5.3c-0.6,1.6-1.6,3.1-2.9,4.2c-1.3,1.2-2.9,2.1-4.8,2.8
				c-1.9,0.7-4.2,1-6.7,1c-3.3,0-6.2-0.3-8.5-1c-2.3-0.6-4.3-1.4-5.9-2.3l2.1-6c1.4,0.8,3.1,1.5,5.3,2.1c2.2,0.6,4.4,1,6.6,1
				c2.5,0,4.6-0.5,6.3-1.5C375.1,293.4,375.9,291.6,375.9,289z"/>
		</g>
		<g>
			<path fill="#4D4D4D" d="M400,256.9V282c0,2.3,0.1,4.3,0.4,6c0.3,1.7,0.7,3.2,1.4,4.3c0.6,1.1,1.5,2,2.6,2.6
				c1.1,0.6,2.5,0.9,4.2,0.9c1.6,0,3-0.2,4.2-0.7c1.2-0.5,2.3-1.2,3.3-2.1s1.8-1.9,2.6-3c0.7-1.1,1.3-2.4,1.8-3.7v-29.4h7v31.5
				c0,2.1,0.1,4.3,0.2,6.6c0.1,2.3,0.4,4.2,0.7,5.9h-4.8l-1.8-7h-0.4c-1.4,2.3-3.2,4.2-5.5,5.7c-2.3,1.5-5.2,2.3-8.7,2.3
				c-2.3,0-4.4-0.3-6.2-0.8c-1.8-0.6-3.3-1.5-4.5-3c-1.2-1.4-2.1-3.3-2.7-5.7c-0.6-2.4-0.9-5.4-0.9-9v-26.6H400z"/>
		</g>
		<g>
			<path fill="#4D4D4D" d="M440.4,260.2c2.2-1.4,4.8-2.3,7.8-3c3-0.6,6.1-1,9.3-1c3.1,0,5.5,0.4,7.4,1.2c1.8,0.8,3.3,1.9,4.2,3.2
				c1,1.3,1.6,2.8,1.9,4.4c0.3,1.6,0.5,3.2,0.5,4.8c0,3.5-0.1,7-0.3,10.3c-0.2,3.3-0.3,6.5-0.3,9.5c0,2.2,0.1,4.2,0.3,6.2
				c0.2,1.9,0.5,3.7,1,5.4H467l-1.8-6.2h-0.4c-0.5,0.8-1.2,1.6-2,2.4c-0.8,0.8-1.7,1.5-2.9,2.1c-1.1,0.6-2.4,1.1-3.9,1.5
				c-1.5,0.4-3.1,0.6-5,0.6c-1.9,0-3.6-0.3-5.2-0.9c-1.6-0.6-3-1.4-4.2-2.5c-1.2-1.1-2.1-2.4-2.8-3.9c-0.7-1.5-1-3.3-1-5.2
				c0-2.6,0.5-4.7,1.6-6.5c1.1-1.7,2.5-3.1,4.4-4.1c1.9-1,4.2-1.8,6.9-2.2c2.7-0.4,5.6-0.7,8.9-0.7c0.8,0,1.6,0,2.4,0
				c0.8,0,1.6,0.1,2.4,0.2c0.2-1.8,0.3-3.3,0.3-4.8c0-3.2-0.6-5.5-1.9-6.8c-1.3-1.3-3.6-1.9-7-1.9c-1,0-2.1,0.1-3.2,0.2
				c-1.1,0.2-2.3,0.4-3.5,0.6c-1.2,0.3-2.3,0.6-3.4,1c-1.1,0.4-2,0.8-2.9,1.3L440.4,260.2z M452.9,295.5c1.6,0,3.1-0.2,4.4-0.7
				c1.3-0.4,2.4-1,3.3-1.7c0.9-0.7,1.7-1.4,2.3-2.2c0.6-0.8,1.1-1.6,1.4-2.4v-7.3c-0.8-0.1-1.7-0.1-2.5-0.1c-0.9,0-1.7,0-2.5,0
				c-1.8,0-3.6,0.1-5.3,0.3c-1.7,0.2-3.3,0.6-4.6,1.1c-1.3,0.6-2.4,1.3-3.2,2.3c-0.8,1-1.2,2.2-1.2,3.7c0,2.1,0.7,3.7,2.2,5.1
				C448.7,294.8,450.6,295.5,452.9,295.5z"/>
		</g>
		<g>
			<path fill="#4D4D4D" d="M542,303c0,5.7-1.5,9.9-4.5,12.6c-3,2.7-7.5,4.1-13.4,4.1c-3.5,0-6.4-0.2-8.5-0.7c-2.1-0.4-4-1-5.5-1.7
				l1.8-6c1.4,0.5,2.8,1,4.5,1.5c1.6,0.5,3.8,0.7,6.4,0.7c2.5,0,4.5-0.2,6-0.7c1.6-0.4,2.8-1.2,3.7-2.2c0.9-1,1.6-2.3,1.9-4
				c0.4-1.6,0.5-3.5,0.5-5.8v-4.2h-0.4c-1.2,1.7-2.7,3-4.5,3.9c-1.8,0.9-4.2,1.4-7.1,1.4c-5.9,0-10.3-1.8-13.1-5.5
				c-2.8-3.7-4.2-9.5-4.2-17.3c0-7.5,1.8-13.2,5.4-17.1c3.6-3.9,8.9-5.9,15.9-5.9c3.3,0,6.2,0.3,8.6,0.8c2.4,0.5,4.5,1.1,6.4,1.8
				V303z M524.3,295.8c3,0,5.3-0.7,7-2.2c1.7-1.5,2.9-3.8,3.6-7V264c-2.3-1.1-5.3-1.7-9-1.7c-4,0-7.1,1.4-9.4,4.1
				c-2.3,2.7-3.4,6.9-3.4,12.7c0,2.5,0.2,4.7,0.6,6.8c0.4,2.1,1.1,3.8,1.9,5.3c0.9,1.5,2,2.6,3.4,3.4
				C520.5,295.4,522.3,295.8,524.3,295.8z"/>
		</g>
		<g>
			<path fill="#4D4D4D" d="M554.9,260.2c2.2-1.4,4.8-2.3,7.8-3c3-0.6,6.1-1,9.3-1c3.1,0,5.5,0.4,7.4,1.2c1.9,0.8,3.3,1.9,4.2,3.2
				c1,1.3,1.6,2.8,1.9,4.4c0.3,1.6,0.5,3.2,0.5,4.8c0,3.5-0.1,7-0.3,10.3c-0.2,3.3-0.3,6.5-0.3,9.5c0,2.2,0.1,4.2,0.3,6.2
				c0.2,1.9,0.5,3.7,1,5.4h-5.2l-1.9-6.2h-0.4c-0.5,0.8-1.2,1.6-2,2.4c-0.8,0.8-1.7,1.5-2.9,2.1c-1.1,0.6-2.4,1.1-3.9,1.5
				c-1.5,0.4-3.1,0.6-5,0.6c-1.9,0-3.6-0.3-5.2-0.9c-1.6-0.6-3-1.4-4.2-2.5c-1.2-1.1-2.1-2.4-2.8-3.9c-0.7-1.5-1-3.3-1-5.2
				c0-2.6,0.5-4.7,1.6-6.5c1.1-1.7,2.5-3.1,4.4-4.1c1.9-1,4.2-1.8,6.9-2.2c2.7-0.4,5.6-0.7,8.9-0.7c0.8,0,1.6,0,2.4,0
				c0.8,0,1.6,0.1,2.4,0.2c0.2-1.8,0.3-3.3,0.3-4.8c0-3.2-0.6-5.5-1.9-6.8c-1.3-1.3-3.6-1.9-7-1.9c-1,0-2.1,0.1-3.2,0.2
				c-1.1,0.2-2.3,0.4-3.5,0.6c-1.2,0.3-2.3,0.6-3.4,1c-1.1,0.4-2,0.8-2.9,1.3L554.9,260.2z M567.4,295.5c1.6,0,3.1-0.2,4.4-0.7
				c1.3-0.4,2.4-1,3.3-1.7c0.9-0.7,1.7-1.4,2.3-2.2c0.6-0.8,1.1-1.6,1.4-2.4v-7.3c-0.8-0.1-1.7-0.1-2.5-0.1c-0.9,0-1.7,0-2.5,0
				c-1.8,0-3.6,0.1-5.3,0.3c-1.7,0.2-3.3,0.6-4.6,1.1c-1.3,0.6-2.4,1.3-3.2,2.3c-0.8,1-1.2,2.2-1.2,3.7c0,2.1,0.7,3.7,2.2,5.1
				C563.2,294.8,565.1,295.5,567.4,295.5z"/>
		</g>
		<g>
			<path fill="#4D4D4D" d="M607.1,290.1c0,2.1,0.4,3.5,1.1,4.4c0.7,0.9,1.7,1.3,3,1.3c0.8,0,1.6-0.1,2.5-0.2c0.9-0.1,1.9-0.4,3-0.8
				l0.8,5.5c-0.9,0.5-2.2,0.9-3.9,1.1c-1.7,0.3-3.1,0.4-4.4,0.4c-2.6,0-4.8-0.7-6.5-2.2c-1.7-1.5-2.6-4-2.6-7.6v-52.8h7V290.1z"/>
		</g>
		<g>
			<path fill="#4D4D4D" d="M657.1,297.4c-1.8,1.4-4,2.5-6.7,3.3c-2.7,0.8-5.5,1.2-8.5,1.2c-3.3,0-6.3-0.5-8.7-1.6
				c-2.5-1.1-4.5-2.6-6.1-4.7c-1.6-2-2.8-4.4-3.5-7.3c-0.8-2.8-1.1-6-1.1-9.5c0-7.5,1.7-13.2,5-17.2c3.3-3.9,8.1-5.9,14.4-5.9
				c2,0,4,0.2,6,0.7c2,0.4,3.8,1.3,5.4,2.5c1.6,1.2,2.9,3,3.9,5.2c1,2.3,1.5,5.2,1.5,8.9c0,1.9-0.2,4.1-0.5,6.4h-28.3
				c0,2.6,0.3,4.9,0.8,6.9c0.5,2,1.3,3.7,2.5,5.1c1.1,1.4,2.6,2.4,4.4,3.2c1.8,0.7,4,1.1,6.6,1.1c2,0,4-0.4,6-1.1
				c2-0.7,3.5-1.5,4.5-2.5L657.1,297.4z M642,262c-3.5,0-6.2,0.9-8.3,2.7c-2.1,1.8-3.3,4.9-3.7,9.3h21.8c0-4.5-0.9-7.6-2.6-9.4
				C647.5,262.9,645.1,262,642,262z"/>
		</g>
		<g>
			<path fill="#4D4D4D" d="M690.5,263.7c-1.8-0.6-3.4-0.9-5-0.9c-2.5,0-4.5,0.7-6,2.1c-1.5,1.4-2.4,3.1-2.7,5.2V301h-7v-44h4.9
				l1.3,5.4h0.4c1.1-2,2.5-3.5,4-4.6c1.6-1.1,3.5-1.6,5.9-1.6c1.7,0,3.6,0.3,5.7,0.9L690.5,263.7z"/>
		</g>
		<g>
			<path fill="#4D4D4D" d="M699,260.2c2.2-1.4,4.8-2.3,7.8-3c3-0.6,6.1-1,9.3-1c3.1,0,5.5,0.4,7.4,1.2c1.9,0.8,3.3,1.9,4.2,3.2
				c1,1.3,1.6,2.8,1.9,4.4c0.3,1.6,0.5,3.2,0.5,4.8c0,3.5-0.1,7-0.3,10.3c-0.2,3.3-0.3,6.5-0.3,9.5c0,2.2,0.1,4.2,0.3,6.2
				c0.2,1.9,0.5,3.7,1,5.4h-5.2l-1.9-6.2h-0.4c-0.5,0.8-1.2,1.6-2,2.4c-0.8,0.8-1.7,1.5-2.9,2.1c-1.1,0.6-2.4,1.1-3.9,1.5
				c-1.5,0.4-3.1,0.6-5,0.6c-1.9,0-3.6-0.3-5.2-0.9c-1.6-0.6-3-1.4-4.2-2.5c-1.2-1.1-2.1-2.4-2.8-3.9c-0.7-1.5-1-3.3-1-5.2
				c0-2.6,0.5-4.7,1.6-6.5c1.1-1.7,2.5-3.1,4.4-4.1c1.9-1,4.2-1.8,6.9-2.2c2.7-0.4,5.6-0.7,8.9-0.7c0.8,0,1.6,0,2.4,0
				c0.8,0,1.6,0.1,2.4,0.2c0.2-1.8,0.3-3.3,0.3-4.8c0-3.2-0.6-5.5-1.9-6.8c-1.3-1.3-3.6-1.9-7-1.9c-1,0-2.1,0.1-3.2,0.2
				c-1.1,0.2-2.3,0.4-3.5,0.6c-1.2,0.3-2.3,0.6-3.4,1c-1.1,0.4-2,0.8-2.9,1.3L699,260.2z M711.5,295.5c1.6,0,3.1-0.2,4.4-0.7
				c1.3-0.4,2.4-1,3.3-1.7c0.9-0.7,1.7-1.4,2.3-2.2c0.6-0.8,1.1-1.6,1.4-2.4v-7.3c-0.8-0.1-1.7-0.1-2.5-0.1c-0.9,0-1.7,0-2.5,0
				c-1.8,0-3.6,0.1-5.3,0.3c-1.7,0.2-3.3,0.6-4.6,1.1c-1.3,0.6-2.4,1.3-3.2,2.3c-0.8,1-1.2,2.2-1.2,3.7c0,2.1,0.7,3.7,2.2,5.1
				C707.3,294.8,709.2,295.5,711.5,295.5z"/>
		</g>
		<g>
			<path fill="#4D4D4D" d="M746.3,296.9c0-1.6,0.5-2.8,1.4-3.7c0.9-0.9,2.1-1.4,3.7-1.4c1.6,0,2.8,0.5,3.8,1.4
				c0.9,0.9,1.4,2.2,1.4,3.7c0,1.5-0.5,2.8-1.4,3.7c-0.9,0.9-2.2,1.4-3.8,1.4c-1.5,0-2.7-0.5-3.7-1.4
				C746.7,299.7,746.3,298.4,746.3,296.9z M747.8,239.3h7.3v30.6l-1.5,15.5h-4.3l-1.5-15.5V239.3z"/>
		</g>
	</g>
</g>
</svg>
