<?xml version="1.0" encoding="utf-8"?>
<!-- Generator: Adobe Illustrator 18.1.1, SVG Export Plug-In . SVG Version: 6.00 Build 0)  -->
<svg version="1.1" id="Camada_1" xmlns="http://www.w3.org/2000/svg" xmlns:xlink="http://www.w3.org/1999/xlink" x="0px" y="0px"
	 viewBox="0 0 635.5 268.5" enable-background="new 0 0 635.5 268.5" xml:space="preserve">
<g>
	<g>
		<g>
			<path fill="#FFFFFF" d="M423.2,203.4l-1.7-1.9c-2.7-3.1-66.3-75.7-66.5-112.2c-0.2-37.3,30.1-67.8,67.4-68l0.3,0
				c37.2,0,67.5,30.2,67.7,67.4c0.2,36.6-62.9,109.7-65.5,112.8L423.2,203.4z M422.7,25.7l-0.3,0c-34.9,0.1-63.1,28.6-63,63.5
				c0.1,31.7,53.5,95.5,63.7,107.4c10.1-12,62.9-76.2,62.8-107.9C485.8,54,457.4,25.7,422.7,25.7z"/>
		</g>
		<g>
			<path fill="#FFFFFF" d="M422.7,36.9c-27.9,0-50.6,22.6-50.6,50.6s22.6,50.6,50.6,50.6c27.9,0,50.6-22.6,50.6-50.6
				S450.6,36.9,422.7,36.9z M415.9,102.4c-0.4-3.5,2.5-6.4,6-6c2.5,0.3,4.6,2.3,4.9,4.8c0.4,3.5-2.5,6.4-6,6
				C418.2,106.9,416.2,104.9,415.9,102.4z M435.1,132.9c-0.2,0.1-5.1-3.9-7.8-7.7c-2.7-3.8-3.4-3.5-4.6-9.4
				c-0.7-3.5-2.7-5.9-2.9-7.3c0.6,0.1,1,0.2,1.6,0.2c1.4,0,2.7-0.5,3.8-1.1c1.5,2.6,8.5,14.9,9.1,16.4
				C434.9,125.8,435.3,132.8,435.1,132.9z M439.3,119.2c-1.6-1.8-2.9-3.3-5.6-5.9c-2.7-2.7-6.9-5.1-7.7-6.3c1.1-1.1,2-2.6,2.2-4.2
				l0.1,0.3c0,0,12,10.5,14.1,15.2c2,4.6,3.2,7.9,3.2,7.9S440.9,121,439.3,119.2z M459.9,96.7c-2.2,0-9.1-1.4-10-1.8
				c-0.9-0.3-9.4-3.5-20.4-7.4c-11-3.9-17.9-4.3-17.9-4.3l3.1,2.6c0,0,17.8,4.5,30.9,10.5s13.7,10.3,13.7,10.3s-6.2-0.9-12.3-4.8
				c-6.1-3.9-18.8-9-22.2-10.1c-3.3-1.1-8.3-2.3-8.3-2.3l3.6,3.3c0,0,19.1,7,25.8,13.3c6.7,6.2,8.8,10.2,8.8,10.2s-6.1-2.4-9.4-3.4
				c-3.3-1-3.8-2.1-6.7-5c-2.5-2.4-6.1-5.4-10.4-5.8l0,0c0-3.6-2.8-6.7-6.4-7c-2.5-0.2-4.9,1-6.2,2.9c-3.8-3.1-11.4-9.4-15.1-12.1
				c-5.1-3.5-14-6.7-14-6.7l3.4-9.8l3.2,0.7c0,0,4.9-10.5,9.8-16.3c5-5.8,8.9-8.3,8.9-8.3l-2.2,5c0,0-6.7,9.3-9.8,14.5
				c-3.1,5.2-3,7.4-3,7.4s15.3-20,17.7-21.9c2.3-2.1,7.4-5,7.4-5s-1.2,4.7-4.8,7.4c-3.7,2.7-17.8,20-17.8,20l0.4,0.4
				c0,0,17.2-16.1,20.9-18.8c3.7-2.7,12.8-6,12.8-6s-3.3,5.6-8.3,7.8c-4.9,2.4-15,9.7-20,13.3c-5,3.5-5.1,3.7-5.1,3.7l0.7,0.4
				c0,0,23.9-15.1,33.2-17.4c9.3-2.4,11.2-1.6,11.2-1.6s-6,4.8-10.7,5.9c-4.8,1.1-19.9,7.5-25.9,10.1c-4.4,1.9-6.4,2.9-7.2,3.4
				c-0.3,0.1-0.4,0.2-0.4,0.2s29.6-10.2,39.6-10.6c10-0.4,13.6,0.2,13.6,0.2s-9.5,5.6-11.7,5.7c-2.1,0.1-30,3.3-34.3,3.9
				c-4.3,0.6-6.3,1.5-6.3,1.5l0.7,0.8c0,0,21.1-3.5,39.6-2.1c18.4,1.6,18.2,3.2,18.2,3.2s-8.8,2.9-15.5,1.9c-6.7-1.1-21-2.1-28-2.3
				c-7-0.3-13.3-0.2-13.3-0.2l1.1,0.9c0,0,12.6,0.1,31.3,2.9c18.7,2.8,26.2,7.4,26.2,7.4s-2.6-0.2-7.9,0c-5.2,0.2-8.5-0.5-10.6-1.3
				c-2.1-0.9-13.8-4-19.9-5.7c-6.1-1.6-14.6-1.9-16-2.1c-1.3-0.2-1.9-0.1-1.9-0.1l1.3,0.9c0,0,17.6,2.9,32.9,8.4
				c15.3,5.5,20.1,8.8,20.1,8.8S462.1,96.7,459.9,96.7z"/>
			<path fill="#FFFFFF" d="M424.9,101.7c0-2.1-1.7-3.7-3.8-3.5c-1.8,0.1-3.3,1.6-3.3,3.4c-0.1,2.1,1.5,3.8,3.6,3.8
				C423.4,105.3,424.9,103.6,424.9,101.7z M418.8,101.4c0.1-1.1,1.1-2.1,2.2-2.2c1.7-0.2,3.1,1.2,2.9,2.9c-0.1,1.1-1.1,2.1-2.2,2.2
				C420,104.5,418.6,103.1,418.8,101.4z"/>
		</g>
		<g>
			<g>
				<path fill="#FFFFFF" d="M36.5,132.6c0,6.4,1,11.3,2.9,14.5c1.9,3.3,5.9,4.9,12,4.9c3.7,0,7.1-0.5,10.2-1.4
					c3.1-1,5.9-2.1,8.3-3.4L74,160c-3.2,2.1-6.7,3.7-10.6,4.8s-8.7,1.7-14.7,1.7c-10.1,0-17.5-2.6-22.3-7.9
					c-4.8-5.3-7.2-13.9-7.2-25.7V62.7H0.7V48.3h18.5l4.6-33.2h12.7v33.2h35.8v14.4H36.5V132.6z"/>
			</g>
			<g>
				<path fill="#FFFFFF" d="M116.3,69c1.6-2.7,3.5-5.5,5.6-8.3c2.2-2.8,4.6-5.2,7.3-7.4c2.7-2.2,5.7-4,9-5.3c3.3-1.4,7-2.1,11.2-2.1
					c4.8,0,8.5,0.6,11.1,1.8c2.6,1.2,4.1,2,4.6,2.3l-5,17.5c-3.4-2.9-7.8-4.3-13.5-4.3c-6.6,0-12.5,1.8-17.7,5.5
					c-5.2,3.7-9.4,8.9-12.6,15.6v80H98.5v-116h14.2L116.3,69z"/>
			</g>
			<g>
				<path fill="#FFFFFF" d="M184.7,12.3c0-3.4,1-6.2,3.1-8.6C189.9,1.2,193,0,197,0c4.2,0,7.2,1.2,9.2,3.6c2,2.4,3,5.3,3,8.6
					s-1,6.2-3,8.5c-2,2.3-5.1,3.5-9.2,3.5c-4,0-7.1-1.2-9.1-3.5C185.8,18.5,184.7,15.6,184.7,12.3z M205.9,164.3h-17.8v-116h17.8
					V164.3z"/>
			</g>
			<g>
				<path fill="#FFFFFF" d="M243.8,2.4h17.8V67c1.6-2.2,3.7-4.6,6.4-7.1c2.6-2.5,5.7-4.7,9.1-6.7c3.4-2,7.3-3.7,11.5-5
					c4.2-1.4,8.8-2,13.8-2c7.5,0,14.1,1.6,19.8,4.7c5.7,3.1,10.4,7.4,14.2,12.7c3.8,5.4,6.6,11.6,8.5,18.7
					c1.9,7.1,2.9,14.6,2.9,22.5c0,10.3-1.2,19.2-3.5,26.9c-2.3,7.7-5.6,14.1-9.9,19.3c-4.2,5.2-9.3,9.1-15.3,11.7
					c-5.9,2.6-12.4,3.8-19.5,3.8c-8.8,0-16.6-2.2-23.3-6.6c-6.7-4.4-11.7-9.7-14.9-16l-3.6,20.4h-14.2V2.4z M261.6,109.1
					c0,5.9,0.9,11.4,2.8,16.5c1.8,5,4.4,9.5,7.6,13.2c3.2,3.8,7,6.7,11.3,8.8c4.3,2.1,9,3.1,13.9,3.1c4.3,0,8.5-0.8,12.5-2.4
					c4-1.6,7.5-4.2,10.6-7.8c3-3.6,5.5-8.3,7.3-14.2c1.8-5.8,2.8-13,2.8-21.5c0-14.4-2.9-25.1-8.6-32.1c-5.8-7-13.2-10.5-22.3-10.5
					c-7.8,0-15,2-21.4,5.9c-6.4,3.9-11.9,8.9-16.3,15V109.1z"/>
			</g>
		</g>
		<g>
			<g>
				<path fill="#FFFFFF" d="M536.7,152.6c9.8,0,16.7-1.8,20.9-5.4c4.2-3.6,6.2-8,6.2-13.1c0-6.4-2.7-11.3-8.2-14.5
					c-5.4-3.3-12.1-6-19.9-8.3c-5.1-1.4-9.8-3.1-14.1-5c-4.2-1.9-7.9-4.2-11.1-7c-3.1-2.7-5.5-5.9-7.2-9.6
					c-1.7-3.7-2.5-8.1-2.5-13.2c0-9.8,3.7-17.3,11.2-22.5c7.4-5.2,17.4-7.8,29.9-7.8c6.7,0,13.1,0.6,19.2,1.9
					c6.1,1.3,11.4,3,16.1,5.3L573.2,67c-4.3-2.1-9-3.7-13.9-4.9c-5-1.2-10.3-1.8-15.9-1.8c-8.6,0-15.1,1.4-19.2,4.3
					c-4.2,2.9-6.2,6.7-6.2,11.5c0,5.6,2.2,9.9,6.5,12.7c4.3,2.9,10.1,5.4,17.3,7.7c13,4,22.8,8.8,29.4,14.3c6.6,5.5,10,13.3,10,23.4
					c0,9.8-3.5,17.6-10.6,23.4c-7.1,5.8-18.1,8.8-33.2,8.8c-7.4,0-14.3-0.6-20.7-1.9c-6.4-1.3-11.8-3.1-16.1-5.5l4.1-13.2
					c4.2,1.9,9,3.5,14.7,4.8C525,151.9,530.7,152.6,536.7,152.6z"/>
			</g>
		</g>
	</g>
	<g opacity="0.6">
		<g>
			<path fill="#FFFFFF" d="M29.1,249.9c-1.5,1.2-3.3,2.1-5.6,2.8c-2.2,0.7-4.6,1-7.1,1c-2.8,0-5.3-0.5-7.3-1.4
				c-2.1-0.9-3.8-2.2-5.1-3.9c-1.3-1.7-2.3-3.7-3-6.1c-0.6-2.4-1-5-1-8c0-6.3,1.4-11.1,4.2-14.4c2.8-3.3,6.8-5,12.1-5
				c1.7,0,3.4,0.2,5,0.6c1.7,0.4,3.2,1.1,4.5,2.1c1.3,1,2.4,2.5,3.3,4.4c0.8,1.9,1.3,4.4,1.3,7.5c0,1.6-0.1,3.4-0.4,5.4H6.1
				c0,2.2,0.2,4.1,0.7,5.8c0.4,1.7,1.1,3.1,2.1,4.3c0.9,1.2,2.2,2,3.7,2.7c1.5,0.6,3.3,0.9,5.5,0.9c1.7,0,3.4-0.3,5-0.9
				c1.7-0.6,2.9-1.3,3.8-2.1L29.1,249.9z M16.4,220.1c-2.9,0-5.2,0.8-7,2.3c-1.8,1.5-2.8,4.1-3.1,7.8h18.3c0-3.7-0.7-6.4-2.1-7.9
				C21,220.9,19,220.1,16.4,220.1z"/>
		</g>
		<g>
			<path fill="#FFFFFF" d="M63.4,252.8v-21.1c0-3.8-0.6-6.7-1.7-8.7c-1.1-1.9-3.1-2.9-6.1-2.9c-2.6,0-4.8,0.7-6.5,2.1
				c-1.7,1.4-2.9,3.2-3.6,5.3v25.3h-5.9v-37h4.1l1.1,4.5h0.3c1.2-1.6,2.8-2.9,4.8-3.9c2-1,4.4-1.5,7.1-1.5c2,0,3.8,0.2,5.3,0.7
				c1.5,0.5,2.8,1.3,3.8,2.5c1,1.2,1.8,2.8,2.3,4.8c0.5,2,0.8,4.5,0.8,7.6v22.3H63.4z"/>
		</g>
		<g>
			<path fill="#FFFFFF" d="M105.4,250.4c-1.5,1.1-3.2,1.9-5.3,2.5c-2,0.6-4.1,0.9-6.4,0.9c-2.9,0-5.3-0.5-7.3-1.4
				c-2-0.9-3.6-2.2-4.8-3.9c-1.3-1.7-2.2-3.7-2.7-6.1c-0.6-2.4-0.9-5-0.9-8c0-6.3,1.4-11.1,4.1-14.4c2.8-3.3,6.7-5,11.9-5
				c2.4,0,4.4,0.2,6,0.6c1.7,0.4,3.1,0.9,4.5,1.6l-1.7,5.1c-1.1-0.6-2.4-1.1-3.8-1.5c-1.4-0.4-2.9-0.6-4.4-0.6
				c-7,0-10.5,4.7-10.5,14.2c0,1.9,0.2,3.7,0.6,5.4c0.4,1.7,1,3.2,1.8,4.5c0.9,1.3,2,2.4,3.4,3.1c1.4,0.8,3.1,1.2,5.2,1.2
				c1.8,0,3.4-0.3,4.8-0.8c1.4-0.5,2.6-1.2,3.4-1.8L105.4,250.4z"/>
		</g>
		<g>
			<path fill="#FFFFFF" d="M109.7,234.3c0-6.3,1.4-11.1,4.2-14.4c2.8-3.3,6.8-5,12-5c2.8,0,5.2,0.5,7.2,1.4c2,0.9,3.7,2.2,5.1,3.9
				c1.3,1.7,2.3,3.7,3,6.1c0.6,2.4,1,5,1,8c0,6.3-1.4,11.1-4.2,14.4c-2.8,3.3-6.8,5-12,5c-2.8,0-5.2-0.5-7.2-1.4
				c-2-0.9-3.7-2.2-5.1-3.9c-1.3-1.7-2.3-3.7-3-6.1C110,239.9,109.7,237.2,109.7,234.3z M115.9,234.3c0,1.9,0.2,3.7,0.6,5.4
				c0.4,1.7,0.9,3.2,1.7,4.5c0.8,1.3,1.8,2.3,3.1,3.1c1.3,0.8,2.8,1.2,4.7,1.2c6.7,0,10.1-4.7,10.1-14.2c0-1.9-0.2-3.7-0.6-5.5
				c-0.4-1.7-1-3.2-1.7-4.5c-0.8-1.3-1.8-2.3-3.1-3.1c-1.3-0.8-2.8-1.1-4.7-1.1C119.2,220.1,115.9,224.8,115.9,234.3z"/>
		</g>
		<g>
			<path fill="#FFFFFF" d="M175.2,252.8v-21.1c0-3.8-0.6-6.7-1.7-8.7c-1.1-1.9-3.1-2.9-6.1-2.9c-2.6,0-4.8,0.7-6.5,2.1
				c-1.7,1.4-2.9,3.2-3.6,5.3v25.3h-5.9v-37h4.1l1.1,4.5h0.3c1.2-1.6,2.8-2.9,4.8-3.9c2-1,4.4-1.5,7.1-1.5c2,0,3.8,0.2,5.3,0.7
				c1.5,0.5,2.8,1.3,3.8,2.5c1,1.2,1.8,2.8,2.3,4.8c0.5,2,0.8,4.5,0.8,7.6v22.3H175.2z"/>
		</g>
		<g>
			<path fill="#FFFFFF" d="M187,215.8h5.8v-7.3l5.9-1.7v9h10.1v5.2h-10.1v20.5c0,2.6,0.3,4.4,1,5.4c0.6,1.1,1.7,1.6,3.3,1.6
				c1.3,0,2.4-0.1,3.3-0.4c0.9-0.3,1.9-0.6,3-1.1l1.3,4.5c-1.3,0.6-2.8,1.2-4.4,1.6c-1.6,0.4-3.3,0.6-5.1,0.6c-3,0-5.1-0.9-6.4-2.6
				c-1.2-1.7-1.8-4.6-1.8-8.5V221H187V215.8z"/>
		</g>
		<g>
			<path fill="#FFFFFF" d="M234.5,221.5c-1.5-0.5-2.9-0.7-4.2-0.7c-2.1,0-3.8,0.6-5,1.7c-1.2,1.2-2,2.6-2.3,4.4v25.9H217v-37h4.1
				l1.1,4.5h0.3c0.9-1.7,2.1-3,3.4-3.9c1.3-0.9,3-1.4,5-1.4c1.4,0,3,0.2,4.8,0.7L234.5,221.5z"/>
		</g>
		<g>
			<path fill="#FFFFFF" d="M269.2,249.9c-1.5,1.2-3.3,2.1-5.6,2.8c-2.2,0.7-4.6,1-7.1,1c-2.8,0-5.3-0.5-7.3-1.4
				c-2.1-0.9-3.8-2.2-5.1-3.9c-1.3-1.7-2.3-3.7-3-6.1c-0.6-2.4-1-5-1-8c0-6.3,1.4-11.1,4.2-14.4c2.8-3.3,6.8-5,12.1-5
				c1.7,0,3.4,0.2,5,0.6c1.7,0.4,3.2,1.1,4.5,2.1c1.3,1,2.4,2.5,3.3,4.4c0.8,1.9,1.3,4.4,1.3,7.5c0,1.6-0.1,3.4-0.4,5.4h-23.7
				c0,2.2,0.2,4.1,0.7,5.8c0.4,1.7,1.1,3.1,2.1,4.3c0.9,1.2,2.2,2,3.7,2.7c1.5,0.6,3.3,0.9,5.5,0.9c1.7,0,3.4-0.3,5-0.9
				c1.7-0.6,2.9-1.3,3.8-2.1L269.2,249.9z M256.4,220.1c-2.9,0-5.2,0.8-7,2.3c-1.8,1.5-2.8,4.1-3.1,7.8h18.3c0-3.7-0.7-6.4-2.1-7.9
				C261.1,220.9,259.1,220.1,256.4,220.1z"/>
		</g>
		<g>
			<path fill="#FFFFFF" d="M315.8,242.8c0-1.5-0.4-2.6-1.3-3.5c-0.9-0.8-2-1.5-3.3-2.1c-1.3-0.6-2.7-1.1-4.3-1.6s-3-1.2-4.3-2
				c-1.3-0.8-2.4-1.9-3.3-3.1c-0.9-1.3-1.3-3-1.3-5.2c0-3.6,1-6.2,3-7.8c2-1.7,4.8-2.5,8.4-2.5c2.7,0,4.9,0.2,6.7,0.7
				c1.8,0.5,3.4,1,4.7,1.7l-1.4,4.9c-1.1-0.5-2.5-1-4.1-1.4c-1.6-0.4-3.3-0.6-5.1-0.6c-2.2,0-3.8,0.4-4.8,1.1c-1,0.7-1.5,2-1.5,3.8
				c0,1.3,0.4,2.3,1.3,3c0.9,0.7,2,1.4,3.3,1.9c1.3,0.6,2.7,1.1,4.3,1.7c1.6,0.5,3,1.3,4.3,2.1c1.3,0.9,2.4,2,3.3,3.4
				c0.9,1.4,1.3,3.1,1.3,5.4c0,1.6-0.3,3.1-0.8,4.4c-0.5,1.4-1.3,2.6-2.4,3.6c-1.1,1-2.4,1.8-4,2.3c-1.6,0.6-3.5,0.9-5.7,0.9
				c-2.8,0-5.2-0.3-7.2-0.8c-2-0.5-3.6-1.2-5-1.9l1.8-5c1.1,0.6,2.6,1.2,4.4,1.8c1.8,0.5,3.7,0.8,5.5,0.8c2.1,0,3.9-0.4,5.3-1.3
				C315.1,246.4,315.8,244.9,315.8,242.8z"/>
		</g>
		<g>
			<path fill="#FFFFFF" d="M336,215.8v21.1c0,1.9,0.1,3.6,0.3,5.1c0.2,1.5,0.6,2.7,1.1,3.6c0.5,1,1.3,1.7,2.2,2.2
				c0.9,0.5,2.1,0.7,3.6,0.7c1.3,0,2.5-0.2,3.6-0.6c1-0.4,2-1,2.8-1.7c0.8-0.7,1.5-1.6,2.1-2.6c0.6-1,1.1-2,1.5-3.1v-24.7h5.9v26.5
				c0,1.8,0.1,3.6,0.2,5.5c0.1,1.9,0.3,3.6,0.6,5h-4.1l-1.5-5.8H354c-1.1,1.9-2.7,3.5-4.6,4.8c-1.9,1.3-4.4,1.9-7.3,1.9
				c-2,0-3.7-0.2-5.2-0.7c-1.5-0.5-2.8-1.3-3.8-2.5c-1-1.2-1.8-2.8-2.3-4.8c-0.5-2-0.8-4.5-0.8-7.6v-22.3H336z"/>
		</g>
		<g>
			<path fill="#FFFFFF" d="M369.9,218.6c1.9-1.1,4.1-2,6.5-2.5c2.5-0.5,5.1-0.8,7.8-0.8c2.6,0,4.6,0.3,6.2,1
				c1.6,0.7,2.7,1.6,3.5,2.7c0.8,1.1,1.4,2.3,1.6,3.7c0.3,1.3,0.4,2.7,0.4,4c0,3-0.1,5.8-0.2,8.7c-0.1,2.8-0.2,5.5-0.2,8
				c0,1.8,0.1,3.6,0.2,5.2c0.1,1.6,0.4,3.1,0.8,4.5h-4.4l-1.6-5.2h-0.4c-0.4,0.7-1,1.4-1.7,2c-0.7,0.7-1.5,1.3-2.4,1.8
				c-0.9,0.5-2,1-3.3,1.3c-1.2,0.3-2.6,0.5-4.2,0.5c-1.6,0-3-0.2-4.4-0.7c-1.4-0.5-2.5-1.2-3.5-2.1c-1-0.9-1.8-2-2.3-3.3
				c-0.6-1.3-0.9-2.7-0.9-4.4c0-2.2,0.4-4,1.3-5.4c0.9-1.5,2.1-2.6,3.7-3.5c1.6-0.9,3.5-1.5,5.8-1.8c2.2-0.4,4.7-0.6,7.4-0.6
				c0.7,0,1.4,0,2,0c0.7,0,1.3,0,2,0.1c0.1-1.5,0.2-2.8,0.2-4c0-2.7-0.5-4.6-1.6-5.7c-1.1-1.1-3.1-1.6-5.9-1.6
				c-0.8,0-1.7,0.1-2.7,0.2c-1,0.1-1.9,0.3-3,0.5c-1,0.2-2,0.5-2.9,0.8c-0.9,0.3-1.7,0.7-2.4,1.1L369.9,218.6z M380.4,248.2
				c1.4,0,2.6-0.2,3.7-0.6c1.1-0.4,2-0.8,2.8-1.4c0.8-0.6,1.4-1.2,2-1.9c0.5-0.7,0.9-1.4,1.1-2v-6.1c-0.7,0-1.4-0.1-2.1-0.1
				c-0.7,0-1.4,0-2.1,0c-1.5,0-3,0.1-4.5,0.3c-1.5,0.2-2.7,0.5-3.8,1c-1.1,0.5-2,1.1-2.7,1.9c-0.7,0.8-1,1.8-1,3.1
				c0,1.7,0.6,3.1,1.8,4.3C376.9,247.7,378.5,248.2,380.4,248.2z"/>
		</g>
		<g>
			<path fill="#FFFFFF" d="M455.3,254.5c0,4.8-1.3,8.3-3.8,10.6c-2.5,2.3-6.3,3.4-11.3,3.4c-3,0-5.3-0.2-7.1-0.6
				c-1.8-0.4-3.3-0.9-4.6-1.4l1.6-5c1.1,0.4,2.4,0.9,3.8,1.3c1.4,0.4,3.2,0.6,5.4,0.6c2.1,0,3.8-0.2,5.1-0.6c1.3-0.4,2.4-1,3.1-1.8
				c0.8-0.9,1.3-2,1.6-3.3c0.3-1.4,0.4-3,0.4-4.8v-3.6h-0.3c-1,1.4-2.2,2.5-3.8,3.3s-3.5,1.1-6,1.1c-5,0-8.6-1.6-11-4.7
				c-2.3-3.1-3.5-7.9-3.5-14.5c0-6.3,1.5-11.1,4.5-14.4c3-3.3,7.4-4.9,13.3-4.9c2.8,0,5.2,0.2,7.2,0.7s3.8,1,5.4,1.6V254.5z
				 M440.4,248.4c2.5,0,4.5-0.6,5.9-1.9c1.4-1.3,2.4-3.2,3-5.9v-18.9c-2-0.9-4.5-1.4-7.5-1.4c-3.4,0-6,1.1-7.9,3.4
				c-1.9,2.3-2.9,5.8-2.9,10.7c0,2.1,0.2,4,0.5,5.7c0.3,1.7,0.9,3.2,1.6,4.4c0.7,1.2,1.7,2.2,2.9,2.9
				C437.3,248.1,438.7,248.4,440.4,248.4z"/>
		</g>
		<g>
			<path fill="#FFFFFF" d="M466.1,218.6c1.9-1.1,4.1-2,6.5-2.5c2.5-0.5,5.1-0.8,7.8-0.8c2.6,0,4.6,0.3,6.2,1
				c1.6,0.7,2.7,1.6,3.6,2.7c0.8,1.1,1.4,2.3,1.6,3.7s0.4,2.7,0.4,4c0,3-0.1,5.8-0.2,8.7c-0.1,2.8-0.2,5.5-0.2,8
				c0,1.8,0.1,3.6,0.2,5.2c0.1,1.6,0.4,3.1,0.8,4.5h-4.4l-1.6-5.2h-0.4c-0.4,0.7-1,1.4-1.7,2c-0.7,0.7-1.5,1.3-2.4,1.8s-2,1-3.3,1.3
				c-1.2,0.3-2.6,0.5-4.2,0.5c-1.6,0-3-0.2-4.4-0.7c-1.4-0.5-2.5-1.2-3.5-2.1c-1-0.9-1.8-2-2.3-3.3c-0.6-1.3-0.9-2.7-0.9-4.4
				c0-2.2,0.4-4,1.3-5.4c0.9-1.5,2.1-2.6,3.7-3.5c1.6-0.9,3.5-1.5,5.8-1.8c2.2-0.4,4.7-0.6,7.4-0.6c0.7,0,1.4,0,2,0
				c0.7,0,1.3,0,2,0.1c0.1-1.5,0.2-2.8,0.2-4c0-2.7-0.5-4.6-1.6-5.7c-1.1-1.1-3.1-1.6-5.9-1.6c-0.8,0-1.7,0.1-2.7,0.2
				c-1,0.1-1.9,0.3-3,0.5c-1,0.2-2,0.5-2.9,0.8c-0.9,0.3-1.7,0.7-2.4,1.1L466.1,218.6z M476.6,248.2c1.4,0,2.6-0.2,3.7-0.6
				c1.1-0.4,2-0.8,2.8-1.4c0.8-0.6,1.4-1.2,2-1.9c0.5-0.7,0.9-1.4,1.1-2v-6.1c-0.7,0-1.4-0.1-2.1-0.1c-0.7,0-1.4,0-2.1,0
				c-1.5,0-3,0.1-4.5,0.3c-1.5,0.2-2.7,0.5-3.8,1c-1.1,0.5-2,1.1-2.7,1.9c-0.7,0.8-1,1.8-1,3.1c0,1.7,0.6,3.1,1.8,4.3
				C473.1,247.7,474.7,248.2,476.6,248.2z"/>
		</g>
		<g>
			<path fill="#FFFFFF" d="M510,243.7c0,1.7,0.3,3,0.9,3.7c0.6,0.7,1.4,1.1,2.5,1.1c0.6,0,1.3,0,2.1-0.1c0.7-0.1,1.6-0.3,2.5-0.7
				l0.7,4.7c-0.8,0.4-1.9,0.7-3.3,1c-1.4,0.2-2.6,0.4-3.7,0.4c-2.2,0-4-0.6-5.5-1.9c-1.4-1.3-2.1-3.4-2.1-6.4V201h5.9V243.7z"/>
		</g>
		<g>
			<path fill="#FFFFFF" d="M552,249.9c-1.5,1.2-3.3,2.1-5.6,2.8c-2.2,0.7-4.6,1-7.1,1c-2.8,0-5.3-0.5-7.3-1.4
				c-2.1-0.9-3.8-2.2-5.1-3.9c-1.3-1.7-2.3-3.7-3-6.1c-0.6-2.4-1-5-1-8c0-6.3,1.4-11.1,4.2-14.4c2.8-3.3,6.8-5,12.1-5
				c1.7,0,3.4,0.2,5,0.6c1.7,0.4,3.2,1.1,4.5,2.1c1.3,1,2.4,2.5,3.3,4.4c0.8,1.9,1.3,4.4,1.3,7.5c0,1.6-0.1,3.4-0.4,5.4h-23.7
				c0,2.2,0.2,4.1,0.7,5.8c0.4,1.7,1.1,3.1,2.1,4.3c0.9,1.2,2.2,2,3.7,2.7c1.5,0.6,3.3,0.9,5.5,0.9c1.7,0,3.4-0.3,5-0.9
				c1.7-0.6,2.9-1.3,3.8-2.1L552,249.9z M539.3,220.1c-2.9,0-5.2,0.8-7,2.3c-1.8,1.5-2.8,4.1-3.1,7.8h18.3c0-3.7-0.7-6.4-2.1-7.9
				C543.9,220.9,541.9,220.1,539.3,220.1z"/>
		</g>
		<g>
			<path fill="#FFFFFF" d="M580.1,221.5c-1.5-0.5-2.9-0.7-4.2-0.7c-2.1,0-3.8,0.6-5,1.7c-1.2,1.2-2,2.6-2.3,4.4v25.9h-5.9v-37h4.1
				l1.1,4.5h0.3c0.9-1.7,2.1-3,3.4-3.9c1.3-0.9,3-1.4,5-1.4c1.4,0,3,0.2,4.8,0.7L580.1,221.5z"/>
		</g>
		<g>
			<path fill="#FFFFFF" d="M587.2,218.6c1.9-1.1,4.1-2,6.5-2.5c2.5-0.5,5.1-0.8,7.8-0.8c2.6,0,4.6,0.3,6.2,1
				c1.6,0.7,2.7,1.6,3.6,2.7c0.8,1.1,1.4,2.3,1.6,3.7s0.4,2.7,0.4,4c0,3-0.1,5.8-0.2,8.7c-0.1,2.8-0.2,5.5-0.2,8
				c0,1.8,0.1,3.6,0.2,5.2c0.1,1.6,0.4,3.1,0.8,4.5h-4.4l-1.6-5.2h-0.4c-0.4,0.7-1,1.4-1.7,2c-0.7,0.7-1.5,1.3-2.4,1.8
				c-0.9,0.5-2,1-3.3,1.3c-1.2,0.3-2.6,0.5-4.2,0.5c-1.6,0-3-0.2-4.4-0.7c-1.4-0.5-2.5-1.2-3.5-2.1c-1-0.9-1.8-2-2.3-3.3
				c-0.6-1.3-0.9-2.7-0.9-4.4c0-2.2,0.4-4,1.3-5.4c0.9-1.5,2.1-2.6,3.7-3.5c1.6-0.9,3.5-1.5,5.8-1.8c2.2-0.4,4.7-0.6,7.4-0.6
				c0.7,0,1.4,0,2,0c0.7,0,1.3,0,2,0.1c0.1-1.5,0.2-2.8,0.2-4c0-2.7-0.5-4.6-1.6-5.7c-1.1-1.1-3.1-1.6-5.9-1.6
				c-0.8,0-1.7,0.1-2.7,0.2c-1,0.1-1.9,0.3-3,0.5c-1,0.2-2,0.5-2.9,0.8c-0.9,0.3-1.7,0.7-2.4,1.1L587.2,218.6z M597.7,248.2
				c1.4,0,2.6-0.2,3.7-0.6c1.1-0.4,2-0.8,2.8-1.4c0.8-0.6,1.4-1.2,2-1.9c0.5-0.7,0.9-1.4,1.1-2v-6.1c-0.7,0-1.4-0.1-2.1-0.1
				c-0.7,0-1.4,0-2.1,0c-1.5,0-3,0.1-4.5,0.3c-1.5,0.2-2.7,0.5-3.8,1c-1.1,0.5-2,1.1-2.7,1.9c-0.7,0.8-1,1.8-1,3.1
				c0,1.7,0.6,3.1,1.8,4.3C594.2,247.7,595.7,248.2,597.7,248.2z"/>
		</g>
		<g>
			<path fill="#FFFFFF" d="M626.9,249.4c0-1.3,0.4-2.4,1.1-3.1c0.8-0.8,1.8-1.1,3.1-1.1c1.3,0,2.4,0.4,3.2,1.1
				c0.8,0.8,1.2,1.8,1.2,3.1c0,1.3-0.4,2.3-1.2,3.1c-0.8,0.8-1.8,1.2-3.2,1.2c-1.3,0-2.3-0.4-3.1-1.2
				C627.3,251.7,626.9,250.7,626.9,249.4z M628.1,201h6.1v25.7l-1.3,13h-3.6l-1.3-13V201z"/>
		</g>
	</g>
</g>
</svg>
