<?xml version="1.0" encoding="utf-8"?>
<!-- Generator: Adobe Illustrator 18.1.1, SVG Export Plug-In . SVG Version: 6.00 Build 0)  -->
<svg version="1.1" id="Camada_1" xmlns="http://www.w3.org/2000/svg" xmlns:xlink="http://www.w3.org/1999/xlink" x="0px" y="0px"
	 viewBox="0 0 690.9 242.1" enable-background="new 0 0 690.9 242.1" xml:space="preserve">
<g>
	<g>
		<g>
			<path fill="#FFFFFF" d="M503,242.1l-2-2.3c-3.2-3.7-79-90.1-79.2-133.6c-0.2-44.4,35.8-80.7,80.2-80.9l0.4,0
				c44.2,0,80.4,36,80.6,80.2c0.2,43.5-74.8,130.6-78,134.3L503,242.1z M502.4,30.6l-0.3,0c-41.5,0.2-75.2,34.1-75,75.6
				c0.2,37.8,63.7,113.7,75.9,127.8c12-14.3,74.9-90.7,74.8-128.5C577.5,64.3,543.7,30.6,502.4,30.6z"/>
		</g>
		<g>
			<path fill="#FFFFFF" d="M502.4,43.9c-33.3,0-60.2,27-60.2,60.2s27,60.2,60.2,60.2s60.2-27,60.2-60.2S535.6,43.9,502.4,43.9z
				 M494.3,121.9c-0.5-4.1,3-7.6,7.1-7.2c3,0.3,5.4,2.7,5.8,5.7c0.5,4.1-3,7.6-7.1,7.2C497.1,127.3,494.6,124.9,494.3,121.9z
				 M517.1,158.2c-0.3,0.1-6.1-4.7-9.3-9.2c-3.2-4.5-4.1-4.2-5.5-11.2c-0.8-4.1-3.2-7-3.4-8.7c0.7,0.1,1.2,0.3,1.9,0.3
				c1.7,0,3.2-0.5,4.5-1.3c1.7,3,10.2,17.7,10.8,19.6C516.9,149.7,517.4,158.1,517.1,158.2z M522.2,141.9c-1.9-2.1-3.5-3.9-6.7-7.1
				c-3.2-3.2-8.2-6.1-9.1-7.5c1.3-1.3,2.4-3.1,2.6-5.1l0.1,0.4c0,0,14.2,12.5,16.8,18.1c2.4,5.4,3.8,9.4,3.8,9.4
				S524.1,144.1,522.2,141.9z M546.6,115.1c-2.7,0-10.9-1.6-11.9-2.2c-1.1-0.4-11.2-4.1-24.3-8.9c-13.1-4.6-21.3-5.1-21.3-5.1
				l3.7,3.1c0,0,21.2,5.3,36.8,12.4s16.4,12.3,16.4,12.3s-7.3-1.1-14.6-5.7c-7.3-4.6-22.4-10.7-26.4-12c-4-1.3-9.9-2.7-9.9-2.7
				l4.3,3.9c0,0,22.7,8.4,30.7,15.8c8,7.4,10.5,12.2,10.5,12.2s-7.3-2.9-11.1-4.1c-4-1.2-4.5-2.5-8-5.9c-2.9-2.9-7.2-6.4-12.4-7l0,0
				c0-4.3-3.3-8-7.6-8.3c-3-0.2-5.8,1.2-7.4,3.5c-4.5-3.7-13.6-11.2-18-14.4c-6.1-4.2-16.6-8-16.6-8l4.1-11.7l3.8,0.8
				c0,0,5.8-12.5,11.7-19.4s10.6-9.9,10.6-9.9l-2.6,6c0,0-8,11-11.7,17.3c-3.7,6.2-3.6,8.8-3.6,8.8s18.2-23.8,21.1-26.1
				c2.8-2.5,8.8-6,8.8-6s-1.4,5.6-5.7,8.8c-4.4,3.2-21.2,23.8-21.2,23.8l0.5,0.5c0,0,20.5-19.2,24.8-22.4c4.4-3.2,15.2-7.1,15.2-7.1
				s-3.9,6.7-9.9,9.3c-5.8,2.8-17.9,11.6-23.8,15.9c-5.9,4.1-6.1,4.4-6.1,4.4l0.8,0.5c0,0,28.4-18,39.6-20.7
				c11.1-2.8,13.4-1.9,13.4-1.9s-7.2,5.7-12.8,7c-5.7,1.4-23.6,8.9-30.8,12c-5.3,2.3-7.7,3.5-8.6,4c-0.4,0.1-0.5,0.3-0.5,0.3
				s35.2-12.1,47.2-12.7c11.9-0.4,16.2,0.2,16.2,0.2s-11.4,6.6-13.9,6.8c-2.5,0.1-35.7,3.9-40.8,4.6c-5.2,0.7-7.6,1.8-7.6,1.8
				l0.8,0.9c0,0,25.2-4.2,47.2-2.5c21.9,1.9,21.6,3.8,21.6,3.8s-10.5,3.4-18.4,2.3c-8-1.3-24.9-2.5-33.3-2.7
				c-8.4-0.4-15.8-0.2-15.8-0.2l1.3,1.1c0,0,15,0.1,37.3,3.4s31.2,8.8,31.2,8.8s-3.1-0.3-9.4,0c-6.2,0.3-10.1-0.5-12.7-1.6
				c-2.5-1.1-16.4-4.8-23.7-6.7s-17.4-2.3-19-2.5c-1.6-0.3-2.3-0.1-2.3-0.1l1.6,1.1c0,0,21,3.5,39.2,10
				c18.2,6.6,23.9,10.5,23.9,10.5S549.3,115.1,546.6,115.1z"/>
			<path fill="#FFFFFF" d="M505,121.1c0-2.5-2-4.4-4.5-4.2c-2.1,0.1-3.9,1.9-4,4c-0.1,2.5,1.8,4.5,4.3,4.5
				C503.2,125.4,505,123.4,505,121.1z M497.7,120.8c0.2-1.4,1.3-2.5,2.6-2.6c2-0.3,3.7,1.4,3.4,3.4c-0.2,1.4-1.3,2.5-2.6,2.6
				C499.2,124.4,497.5,122.7,497.7,120.8z"/>
		</g>
		<g>
			<g>
				<path fill="#FFFFFF" d="M42.6,157.9c0,7.6,1.1,13.4,3.4,17.3c2.3,3.9,7.1,5.9,14.3,5.9c4.4,0,8.4-0.6,12.2-1.7
					c3.7-1.1,7-2.5,9.9-4l4.9,15.2c-3.8,2.5-8,4.4-12.6,5.7c-4.6,1.3-10.4,2-17.4,2c-12,0-20.9-3.1-26.6-9.4
					c-5.7-6.3-8.6-16.5-8.6-30.6V74.7H0V57.5h22L27.5,18h15.2v39.5h42.6v17.2H42.6V157.9z"/>
			</g>
			<g>
				<path fill="#FFFFFF" d="M137.6,82.1c1.9-3.3,4.1-6.5,6.7-9.8c2.6-3.3,5.5-6.2,8.7-8.8c3.2-2.6,6.8-4.7,10.7-6.4
					c3.9-1.6,8.3-2.5,13.3-2.5c5.7,0,10.1,0.7,13.2,2.1c3,1.4,4.9,2.3,5.4,2.7l-6,20.9c-4-3.4-9.3-5.1-16-5.1
					c-7.8,0-14.8,2.2-21,6.6c-6.2,4.4-11.2,10.6-15,18.6v95.2h-21.2V57.5h16.9L137.6,82.1z"/>
			</g>
			<g>
				<path fill="#FFFFFF" d="M219.1,14.6c0-4,1.2-7.4,3.7-10.3c2.5-2.9,6.1-4.3,10.9-4.3c5,0,8.6,1.4,11,4.3
					c2.4,2.9,3.6,6.3,3.6,10.3s-1.2,7.4-3.6,10.2c-2.4,2.8-6.1,4.1-11,4.1c-4.8,0-8.4-1.4-10.9-4.1C220.3,22,219.1,18.6,219.1,14.6z
					 M244.3,195.6h-21.2V57.5h21.2V195.6z"/>
			</g>
			<g>
				<path fill="#FFFFFF" d="M289.4,2.9h21.2v76.9c1.9-2.7,4.4-5.5,7.6-8.4c3.1-3,6.8-5.6,10.9-8c4.1-2.4,8.7-4.4,13.7-6
					c5-1.6,10.5-2.4,16.4-2.4c9,0,16.8,1.9,23.6,5.6c6.8,3.7,12.4,8.8,16.9,15.2c4.5,6.4,7.9,13.8,10.2,22.3
					c2.3,8.5,3.4,17.4,3.4,26.7c0,12.2-1.4,22.9-4.1,32c-2.8,9.2-6.7,16.8-11.7,23c-5.1,6.2-11.1,10.8-18.2,13.9
					c-7.1,3-14.8,4.6-23.2,4.6c-10.5,0-19.7-2.6-27.7-7.9c-8-5.2-13.9-11.6-17.7-19l-4.3,24.3h-16.9V2.9z M310.6,129.9
					c0,7.1,1.1,13.6,3.3,19.6c2.2,6,5.2,11.3,9,15.7c3.8,4.5,8.3,8,13.4,10.4c5.1,2.5,10.7,3.7,16.6,3.7c5.1,0,10.1-1,14.9-2.9
					c4.8-1.9,9-5,12.6-9.3c3.6-4.3,6.5-9.9,8.7-16.9c2.2-7,3.3-15.5,3.3-25.6c0-17.2-3.4-29.9-10.3-38.2
					c-6.9-8.3-15.7-12.4-26.6-12.4c-9.3,0-17.8,2.3-25.5,7c-7.6,4.7-14.1,10.6-19.4,17.9V129.9z"/>
			</g>
		</g>
		<g>
			<g>
				<path fill="#FFFFFF" d="M638,181.6c11.6,0,19.9-2.1,24.9-6.4c5-4.3,7.4-9.5,7.4-15.6c0-7.6-3.2-13.4-9.7-17.3
					c-6.5-3.9-14.4-7.2-23.7-9.9c-6.1-1.7-11.7-3.7-16.7-6c-5.1-2.3-9.4-5-13.2-8.3c-3.7-3.2-6.6-7.1-8.6-11.4c-2-4.4-3-9.6-3-15.7
					c0-11.6,4.4-20.5,13.3-26.7c8.9-6.2,20.7-9.3,35.6-9.3c8,0,15.6,0.8,22.9,2.3c7.2,1.5,13.6,3.6,19.2,6.3l-4.9,16.3
					c-5.1-2.5-10.7-4.4-16.6-5.9c-5.9-1.4-12.2-2.1-18.9-2.1c-10.3,0-17.9,1.7-22.9,5.1c-5,3.4-7.4,8-7.4,13.7
					c0,6.7,2.6,11.7,7.7,15.2c5.1,3.4,12,6.5,20.6,9.2c15.4,4.8,27.1,10.4,35,17c7.9,6.6,11.9,15.9,11.9,27.9
					c0,11.6-4.2,20.9-12.6,27.9c-8.4,7-21.5,10.4-39.5,10.4c-8.8,0-17-0.8-24.6-2.3c-7.6-1.5-14-3.7-19.2-6.6l4.9-15.7
					c5,2.3,10.8,4.2,17.4,5.7C624.1,180.9,631,181.6,638,181.6z"/>
			</g>
		</g>
	</g>
</g>
</svg>
