<?xml version="1.0" encoding="utf-8"?>
<!-- Generator: Adobe Illustrator 18.1.1, SVG Export Plug-In . SVG Version: 6.00 Build 0)  -->
<svg version="1.1" id="Layer_1" xmlns="http://www.w3.org/2000/svg" xmlns:xlink="http://www.w3.org/1999/xlink" x="0px" y="0px"
	 viewBox="90 510 900 900" enable-background="new 90 510 900 900" xml:space="preserve">
<g>
	<g>
		<path fill="#FFFFFF" d="M580,1275h-80v-207c0-0.6,0-1-0.1-1.3c-0.3-0.3-0.8-1-1.7-1.9l-76.5-76.5l56.6-56.6l76.5,76.5
			c17,17,25.2,36.5,25.2,59.8V1275z"/>
	</g>
	<g>
		<circle fill="#FFFFFF" cx="675" cy="600" r="90"/>
	</g>
	<g>
		<g>
			<g>
				<path fill="#FFFFFF" d="M810,1122c58.5,0,108,49.5,108,108s-49.5,108-108,108s-108-49.5-108-108S751.5,1122,810,1122 M810,1050
					c-99,0-180,81-180,180s81,180,180,180s180-81,180-180S909,1050,810,1050L810,1050z"/>
			</g>
		</g>
	</g>
	<g>
		<g>
			<g>
				<path fill="#FFFFFF" d="M270,1122c58.5,0,108,49.5,108,108s-49.5,108-108,108s-108-49.5-108-108S211.5,1122,270,1122 M270,1050
					c-99,0-180,81-180,180s81,180,180,180s180-81,180-180S369,1050,270,1050L270,1050z"/>
			</g>
		</g>
	</g>
	<g>
		<path fill="#FFFFFF" d="M760.5,870c-13.5,0-22.5-4.5-27-13.5C621,717,603,690,567,690c-27,0-9,0-22.5,0c-36,0-63,27-193.5,157.5
			c-49.5,49.5-45,112.5,4.5,144l153,90l63-45l-90-58.5l126-112.5l67.5,72c13.5,18,36,27,58.5,27H900v-90H760.5V870z"/>
	</g>
</g>
</svg>
