<?xml version="1.0" encoding="utf-8"?>
<!-- Generator: Adobe Illustrator 18.1.1, SVG Export Plug-In . SVG Version: 6.00 Build 0)  -->
<svg version="1.1" id="Layer_1" xmlns="http://www.w3.org/2000/svg" xmlns:xlink="http://www.w3.org/1999/xlink" x="0px" y="0px"
	 viewBox="90 510.7 903.4 899.3" enable-background="new 90 510.7 903.4 899.3" xml:space="preserve">
<g>
	<path fill="#FFFFFF" d="M405,780c-175.5,0-315,139.5-315,315s139.5,315,315,315s315-139.5,315-315S580.5,780,405,780z M382.5,1005
		c-36,0-67.5-31.5-67.5-67.5s31.5-67.5,67.5-67.5s67.5,31.5,67.5,67.5S418.5,1005,382.5,1005z M540,1050c-27,0-45-18-45-45
		s18-45,45-45s45,18,45,45S567,1050,540,1050z M405,1140c-27,0-45-18-45-45s18-45,45-45s45,18,45,45S432,1140,405,1140z"/>
	<g>
		<path fill="#FFFFFF" d="M760.5,694.5c0,13.5,0,27-4.5,40.5h153c0-13.5-4.5-27-4.5-40.5c0-18,9-40.5,13.5-63c4.5-18,4.5-36,0-54
			c-9-31.5-31.5-58.5-63-63c-63-18-117,31.5-117,90c0,9,0,18,4.5,27C751.5,649.5,760.5,681,760.5,694.5z"/>
		<path fill="#FFFFFF" d="M918,780H751.5c-9,36-18,76.5-27,103.5c40.5,63,63,135,63,211.5c0,90-31.5,171-81,238.5
			c9,18,63,31.5,130.5,31.5c72,0,130.5-18,130.5-36c0-9,13.5-108,22.5-189s0-130.5-27-207C954,910.5,931.5,847.5,918,780z"/>
	</g>
</g>
</svg>
