<?xml version="1.0" encoding="utf-8"?>
<!-- Generator: Adobe Illustrator 18.1.1, SVG Export Plug-In . SVG Version: 6.00 Build 0)  -->
<svg version="1.1" id="Layer_1" xmlns="http://www.w3.org/2000/svg" xmlns:xlink="http://www.w3.org/1999/xlink" x="0px" y="0px"
	 viewBox="180 510 769.7 900" enable-background="new 180 510 769.7 900" xml:space="preserve">
<g>
	<g>
		<circle fill="#FFFFFF" cx="765" cy="600" r="90"/>
	</g>
	<g>
		<path fill="#FFFFFF" d="M382.5,1170H180v-60h202.5c17.6,0,36.1-9.3,48.3-24.4L444,1068l48,36l-14.1,18.7
			C454.3,1152.3,418.6,1170,382.5,1170z"/>
	</g>
	<g>
		<path fill="#FFFFFF" d="M949.5,949.5H819c-48.7,0-90.1-25.6-108.2-66.8l-35.6-71.3c-6-12.1-14.8-20.9-26.8-26.9l-74.2-34.9
			l-57.6-17.7l-1.1-0.5c-11.6-4.6-24.7-3.5-43.6,3.9c-50,27.1-140,70-143.8,71.9L302.3,753c0.9-0.4,94.3-45,142.5-71.3l1.6-0.9
			l1.7-0.7c21.4-8.6,53.8-18.3,88.5-5l59.5,18.3l79.1,37.2c23.9,11.9,42,30.1,53.9,53.9l36.4,72.8l0.3,0.8
			c8.4,19.6,28.4,31.3,53.4,31.3h130.5v60.1H949.5z"/>
	</g>
	<g>
		<path fill="#FFFFFF" d="M571.5,735l-108,189c-22.5,40.5-13.5,90,22.5,121.5l175.5,126l-54-130.5c0,0-36,4.5-27-9L711,798
			L571.5,735z"/>
	</g>
	<g>
		<path fill="#FFFFFF" d="M625.5,1185L540,1410h94.5l76.5-193.5c18-49.5,9-108-31.5-144l-108-108l-63,63l108,108
			C630,1149,634.5,1167,625.5,1185z"/>
	</g>
</g>
</svg>
