<?xml version="1.0" encoding="utf-8"?>
<!-- Generator: Adobe Illustrator 18.1.1, SVG Export Plug-In . SVG Version: 6.00 Build 0)  -->
<svg version="1.1" id="Layer_1" xmlns="http://www.w3.org/2000/svg" xmlns:xlink="http://www.w3.org/1999/xlink" x="0px" y="0px"
	 viewBox="86.8 510 903.2 885.5" enable-background="new 86.8 510 903.2 885.5" xml:space="preserve">
<g>
	<g>
		<g>
			<ellipse fill="#FFFFFF" cx="877.5" cy="546" rx="112.5" ry="36"/>
		</g>
	</g>
	<g>
		<polygon fill="#FFFFFF" points="342,789 288,1077 495,1099.5 540,811.5 		"/>
	</g>
	<g>
		<circle fill="#FFFFFF" cx="450" cy="600" r="90"/>
	</g>
	<g>
		<path fill="#FFFFFF" d="M387.3,1395.5l-54.5-25.1l76.2-165.8c7.4-18.6,11.1-37.3,11.1-55.7V996h60v153c0,26.2-5.3,52.7-15.6,78.6
			l-0.6,1.4L387.3,1395.5z"/>
	</g>
	<g>
		<path fill="#FFFFFF" d="M125.5,1275l-26-54.1l122.1-58.8l0.6-0.3c25.4-10.9,50.2-37.2,60.2-64l0.4-1.1l58.5-139.5l55.3,23.2
			l-58.3,139c-15.8,41.7-51.8,79.8-91.9,97.2L125.5,1275z"/>
	</g>
	<g>
		<path fill="#FFFFFF" d="M129.2,963.2l-42.4-42.4l76.5-76.5c24.8-24.8,51.3-41.4,83.4-52.1l60.1-21.4
			c24.9-14.3,51.2-20.7,84.7-20.7h90c20.3,0,42.9-4.2,60.7-11.3L597,716l1-0.3c17.6-5.9,34.4-21.6,45-42.2l48.9-129l56.1,21.3
			l-50,131.9l-0.7,1.4c-17.6,35.3-46.5,61.9-79.2,73.2l-53.5,22.3c-24.9,9.9-55.2,15.6-83.1,15.6h-90c-23.9,0-40.3,4-56.6,13.7
			l-2.5,1.5L266,849c-23.7,7.9-41.7,19.2-60.3,37.8L129.2,963.2z"/>
	</g>
</g>
</svg>
