<?xml version="1.0" encoding="utf-8"?>
<!-- Generator: Adobe Illustrator 18.1.1, SVG Export Plug-In . SVG Version: 6.00 Build 0)  -->
<svg version="1.1" id="Layer_1" xmlns="http://www.w3.org/2000/svg" xmlns:xlink="http://www.w3.org/1999/xlink" x="0px" y="0px"
	 viewBox="90 510 900 900" enable-background="new 90 510 900 900" xml:space="preserve">
<g>
	<g>
		<path fill="#FFFFFF" d="M540,600c198,0,360,162,360,360s-162,360-360,360s-360-162-360-360S342,600,540,600 M540,510
			C292.5,510,90,712.5,90,960s202.5,450,450,450s450-202.5,450-450S787.5,510,540,510L540,510z"/>
	</g>
	<polygon fill="#FFFFFF" points="432,1131 360,919.5 540,789 720,919.5 648,1131 	"/>
	<polygon fill="#FFFFFF" points="625.5,528 679.5,622.5 540,681 400.5,622.5 454.5,528 	"/>
	<polygon fill="#FFFFFF" points="157.5,744 265.5,726 274.5,874.5 175.5,987 103.5,906 	"/>
	<polygon fill="#FFFFFF" points="216,1257 229.5,1149 378,1185 454.5,1315.5 355.5,1360.5 	"/>
	<polygon fill="#FFFFFF" points="724.5,1360.5 625.5,1315.5 702,1185 850.5,1149 864,1257 	"/>
	<polygon fill="#FFFFFF" points="976.5,906 904.5,987 805.5,874.5 814.5,726 922.5,744 	"/>
</g>
</svg>
