<?xml version="1.0" encoding="utf-8"?>
<!-- Generator: Adobe Illustrator 18.1.1, SVG Export Plug-In . SVG Version: 6.00 Build 0)  -->
<svg version="1.1" id="Invader_1" xmlns="http://www.w3.org/2000/svg" xmlns:xlink="http://www.w3.org/1999/xlink" x="0px" y="0px"
	 viewBox="-149.1 1369.7 812.1 590.6" enable-background="new -149.1 1369.7 812.1 590.6" xml:space="preserve">
<g>
	<path fill="#FFFFFF" d="M72.4,1960.3v-73.8h147.7v73.8H72.4z M293.9,1960.3h147.7v-73.8H293.9V1960.3z M663.1,1665v73.8v147.7
		h-73.8v-147.7h-73.8v147.7h-73.8v-73.8H72.4v73.8H-1.4v-147.7h-73.8v147.7h-73.8v-147.7V1665h73.8v-73.8h73.8v-73.8h73.8v-73.8
		h73.8v73.8h221.5v-73.8h73.8v73.8h73.8v73.8h73.8v73.8H663.1z M146.3,1591.2H72.4v73.8h73.8V1591.2z M441.6,1591.2h-73.8v73.8h73.8
		V1591.2z M515.4,1369.7h-73.8v73.8h73.8V1369.7z M-1.4,1369.7v73.8h73.8v-73.8H-1.4z"/>
</g>
</svg>
