<?xml version="1.0" encoding="utf-8"?>
<!-- Generator: Adobe Illustrator 18.1.1, SVG Export Plug-In . SVG Version: 6.00 Build 0)  -->
<svg version="1.1" id="Layer_1" xmlns="http://www.w3.org/2000/svg" xmlns:xlink="http://www.w3.org/1999/xlink" x="0px" y="0px"
	 viewBox="150.1 419.8 779.8 1081.9" enable-background="new 150.1 419.8 779.8 1081.9" xml:space="preserve">
<g>
	<g>
		<path fill="#FFFFFF" d="M270.6,480.5l0.2,717.2c-0.2,67.3,42,62,57.2,62h523.3c81.2,0,78.3-56.5,78.3-71.3V491.7
			c4.4-71.9-52.9-71.9-68.1-71.9H328C312.8,419.8,270.4,430.1,270.6,480.5z M788.9,778H399.7c-15.2,0-28.5-11.2-28.5-25.9V574.2
			c0-14.8,14.3-31.9,29.5-31.9H790c15.2,0,28.5,14.1,28.5,28.9V749C818.4,763.8,804.1,778,788.9,778z"/>
	</g>
	<polygon fill="#FFFFFF" points="474.2,1501.7 372.5,1471.9 270.8,1501.7 270.8,1314.6 474.2,1314.6 	"/>
	<g>
		<path fill="#FFFFFF" d="M922.9,1369.9c-21.1-33.8-18.1-106.9,0.4-146.6h-33.5c-17.9,36.9-18.8,96.6,0,133.1H502.9v29.7h420.6
			c6.1-2.7,3.2-10.3,0-16.2H922.9z"/>
		<path fill="#FFFFFF" d="M151.2,547.2l-0.4,807c-0.6,34.2,32.1,34.4,59.9,31.9h12.9l0.2-25.7c-40.7,9.7-74-84.8-0.8-101V425.1
			C174.9,432.2,143.6,477,151.2,547.2z"/>
	</g>
</g>
</svg>
