<?xml version="1.0" encoding="utf-8"?>
<!-- Generator: Adobe Illustrator 18.1.1, SVG Export Plug-In . SVG Version: 6.00 Build 0)  -->
<svg version="1.1" id="Layer_1" xmlns="http://www.w3.org/2000/svg" xmlns:xlink="http://www.w3.org/1999/xlink" x="0px" y="0px"
	 viewBox="172.6 510 734.8 878" enable-background="new 172.6 510 734.8 878" xml:space="preserve">
<g>
	<g>
		<circle fill="#FFFFFF" cx="540" cy="600" r="90"/>
	</g>
	<g>
		<rect x="180" y="1387" fill="#FFFFFF" width="720" height="1"/>
	</g>
	<g>
		<path fill="#FFFFFF" d="M892.7,1079.1L768.3,1048c-43.5-6.2-77.4-37.6-90.7-84.3l-0.2-0.7l-30.8-119c-9.6-20.4-30.5-34-52.6-34
			H486c-22.1,0-43,13.6-52.6,34l-31,119.4l-0.1,0.4c-11.4,39.8-44.3,71.1-88.1,83.6l-1,0.3l-126,31.5l-14.6-58.2l125.5-31.4
			c23.4-6.8,40.7-22.5,46.4-42l32-123.3l0.9-2.1c9-21,23.8-38.9,42.8-51.8C439.8,757,462.6,750,486,750h108c23.4,0,46.2,7,65.8,20.4
			c19,12.9,33.8,30.8,42.8,51.8l0.9,2.1l32,123.3c9.4,32.4,30.5,39.7,42.3,41.1l1.8,0.2l127.8,31.9L892.7,1079.1z"/>
	</g>
	<g>
		<polygon fill="#FFFFFF" points="652.5,1050 652.5,1050 652.5,825 540,780 427.5,825 427.5,1050 427.5,1050 360,1068 540,1198.5 
			720,1068 		"/>
	</g>
	<g>
		<path fill="#FFFFFF" d="M747,1099.5l-387,135l31.5,85.5l387-135c22.5-9,36-31.5,27-58.5l0,0C796.5,1104,774,1090.5,747,1099.5z"/>
	</g>
	<g>
		<g>
			<path fill="#FFFFFF" d="M445.5,1234.5l135-49.5l-252-85.5c-22.5-9-49.5,4.5-58.5,27s4.5,49.5,27,58.5L445.5,1234.5L445.5,1234.5z
				"/>
		</g>
		<g>
			<polygon fill="#FFFFFF" points="580.5,1284 688.5,1320 720,1234.5 			"/>
		</g>
	</g>
</g>
</svg>
