<?xml version="1.0" encoding="utf-8"?>
<!-- Generator: Adobe Illustrator 18.1.1, SVG Export Plug-In . SVG Version: 6.00 Build 0)  -->
<svg version="1.1" id="Layer_2" xmlns="http://www.w3.org/2000/svg" xmlns:xlink="http://www.w3.org/1999/xlink" x="0px" y="0px"
	 viewBox="-418.1 1585 1079.1 612" enable-background="new -418.1 1585 1079.1 612" xml:space="preserve">
<g>
	<path fill="#FFFFFF" d="M661,2076.4c-50,0-76.5-22.1-97.2-39.6c-18-14.8-29.7-24.8-56.7-24.8s-39.1,9.9-56.7,24.8
		c-21.1,17.6-47.2,39.6-97.6,39.6c-49.9,0-76.5-22.1-97.2-39.6c-18-14.8-29.7-24.8-56.7-24.8s-38.7,9.9-56.7,24.8
		c-21.2,17.6-47.2,39.6-97.7,39.6c-50,0-76.5-22.1-97.2-39.6c-18-14.8-29.7-24.8-56.7-24.8s-38.7,9.9-56.7,24.8
		c-21.2,17.6-47.2,39.6-97.7,39.6c-50,0-76.5-22.1-97.2-39.6c-18-14.8-29.7-24.8-56.7-24.8v-62.6c50,0,76.5,22.1,97.2,39.6
		c18,14.8,29.7,24.8,56.7,24.8s39.2-9.9,56.7-24.8c21.2-17.6,47.2-39.6,97.2-39.6s76.5,22.1,97.2,39.6c18,14.8,29.7,24.8,56.7,24.8
		s39.2-9.9,56.7-24.8c21.2-17.6,47.2-39.6,97.2-39.6s76.5,22.1,97.7,39.6c18,14.8,29.7,24.8,56.7,24.8s39.1-9.9,56.7-24.8
		c21.1-17.6,47.2-39.6,97.6-39.6c50,0,76.5,22.1,97.6,39.6c18,14.8,29.7,24.8,56.7,24.8V2076.4L661,2076.4z M430.1,1585
		c-75.1,0-136.4,60.8-136.4,135.4c0,74.7,61.2,135.4,136.4,135.4s136.4-60.8,136.4-135.4C566.5,1645.8,505.3,1585,430.1,1585z
		 M76.5,1744.3l67,37.8l-177.8,139.9c7.7,5.4,14.4,10.8,20.7,16.2c18.5,15.8,31,25.7,59.4,25.7c28.3,0,40.5-10.3,59.4-25.7
		c22-18.4,49.5-40.9,101.2-40.9c52.2,0,79.7,22.9,101.2,40.9c5.8,4.9,10.8,9,16.2,12.6l18.9-35.1l-114.3-184.9l-145.3-63.9
		l-215.5,101.7l34.7,44.1L76.5,1744.3z M661,2134.4c-27,0-39.1-9.9-56.7-24.8c-21.1-17.6-47.2-39.6-97.6-39.6
		c-50,0-76.5,22.1-97.6,39.6c-18,14.9-29.7,24.8-56.7,24.8s-38.7-9.9-56.7-24.8c-21.2-17.6-47.3-39.6-97.7-39.6
		c-50,0-76.5,22.1-97.2,39.6c-18,14.9-29.7,24.8-56.7,24.8s-38.7-9.9-56.7-24.8c-21.2-17.6-47.2-39.6-97.2-39.6
		s-76.5,22.1-97.2,39.6c-18,14.9-29.7,24.8-56.7,24.8s-38.7-9.9-56.7-24.8c-21.2-17.6-47.2-39.6-97.7-39.6v62.6
		c27,0,38.7,9.9,56.7,24.8c21.2,17.6,47.2,39.6,97.2,39.6s76.5-22.1,97.7-39.6c18-14.9,29.7-24.8,56.7-24.8s38.7,9.9,56.7,24.8
		C-32,2174.9-5.9,2197,44,2197s76.5-22.1,97.7-39.6c18-14.9,29.7-24.8,56.7-24.8s39.2,9.9,56.7,24.8c21.2,17.6,47.3,39.6,97.6,39.6
		c50,0,76.5-22.1,97.6-39.6c18-14.9,29.7-24.8,56.7-24.8s39.1,9.9,56.7,24.8c21.1,17.6,47.2,39.6,97.2,39.6V2134.4L661,2134.4z"/>
</g>
</svg>
