<?xml version="1.0" encoding="utf-8"?>
<!-- Generator: Adobe Illustrator 18.1.1, SVG Export Plug-In . SVG Version: 6.00 Build 0)  -->
<svg version="1.1" id="Layer_1" xmlns="http://www.w3.org/2000/svg" xmlns:xlink="http://www.w3.org/1999/xlink" x="0px" y="0px"
	 viewBox="90 510 900 900" enable-background="new 90 510 900 900" xml:space="preserve">
<g>
	<path fill="#FFFFFF" d="M990,973.5C985.5,717,787.5,510,540,510S90,717,90,973.5l0,0l0,0l0,0l0,0c0,4.5,18,36,67.5,54
		c18,4.5,31.5,9,45,9c31.5,0,49.5-13.5,49.5-13.5s36,49.5,85.5,54c4.5,0,13.5,0,18,0c54,0,81-27,85.5-27c4.5,9,31.5,45,99,45
		c0,0,0,0,4.5,0c72,0,103.5-45,103.5-45s31.5,27,85.5,27h4.5c4.5,0,9,0,13.5,0c67.5-13.5,85.5-54,85.5-54s13.5,9,49.5,13.5h4.5
		c13.5,0,22.5-4.5,40.5-9C976.5,1009.5,990,978,990,973.5L990,973.5z M904.5,969C837,982.5,810,910.5,810,910.5s0,94.5-76.5,108
		S630,951,630,951s-13.5,81-90,81s-90-72-90-72s-45,81-108,54s-72-85.5-72-85.5s-45,58.5-94.5,36c-9-4.5-18-9-22.5-13.5
		c9-211.5,180-382.5,387-382.5s378,171,387,382.5C922.5,960,913.5,964.5,904.5,969z"/>
	<path fill="#FFFFFF" d="M99,951c4.5-225,243-418.5,441-387C252,667.5,265.5,991.5,265.5,991.5s-45,22.5-99,4.5
		C112.5,982.5,99,951,99,951L99,951z"/>
	<path fill="#FFFFFF" d="M99,951c4.5-225,243-418.5,441-387C252,667.5,265.5,991.5,265.5,991.5s-45,22.5-99,4.5
		C112.5,982.5,99,951,99,951L99,951z"/>
	<path fill="#FFFFFF" d="M540,546c-171,211.5-103.5,508.5-103.5,504c4.5,9,36,45,99,45c72,0,103.5-45,103.5-45S675,762,540,546z"/>
	<path fill="#FFFFFF" d="M981,951c-4.5-220.5-243-414-441-382.5C828,672,814.5,996,814.5,996s45,22.5,99,4.5S981,951,981,951
		L981,951z"/>
	<g>
		<path fill="#FFFFFF" d="M432,1108.5c-4.5,0-9,4.5-9,4.5l49.5,297H540l-45-274.5C468,1131,445.5,1117.5,432,1108.5z"/>
		<path fill="#FFFFFF" d="M148.5,1072.5l189,337.5H414l-184.5-333C207,1081.5,180,1081.5,148.5,1072.5z"/>
		<path fill="#FFFFFF" d="M882,1081.5h-9c-9,0-18,0-27-4.5l-180,333h76.5l189-337.5C913.5,1077,895.5,1081.5,882,1081.5z"/>
		<path fill="#FFFFFF" d="M648,1108.5c-13.5,9-36,18-58.5,27L540,1410h67.5l49.5-297C657,1108.5,652.5,1108.5,648,1108.5z"/>
	</g>
</g>
</svg>
