<?xml version="1.0" encoding="utf-8"?>
<!-- Generator: Adobe Illustrator 18.1.1, SVG Export Plug-In . SVG Version: 6.00 Build 0)  -->
<svg version="1.1" id="General_layer" xmlns="http://www.w3.org/2000/svg" xmlns:xlink="http://www.w3.org/1999/xlink" x="0px"
	 y="0px" viewBox="1.2 1349 1078.5 870.9" enable-background="new 1.2 1349 1078.5 870.9" xml:space="preserve">
<g>
	<path fill="#FFFFFF" d="M1017.8,1370.8L607.2,1349c10,149.9-38.6,230.2-112,279.3l1.3,1.3c-123.3,33.7-414.1,120.1-481.2,218.3
		c-34.8,51-1.9,115.1,63.5,114.5l526.9-0.6H829l-1.2-1.2h220.5C1148.5,1724.8,973,1632.7,1017.8,1370.8z"/>
	<g>
		<path fill="#FFFFFF" d="M405.7,2147.2c-26.8,0-48.5-21.8-48.5-48.5s21.8-48.5,48.5-48.5s48.5,21.8,48.5,48.5
			S432.4,2147.2,405.7,2147.2L405.7,2147.2z"/>
		<path fill="#FFFFFF" d="M405.7,1976.1c-67.2,0-121.9,54.7-121.9,121.9c0,67.2,54.7,121.9,121.9,121.9s121.9-54.7,121.9-121.9
			C527.6,2030.8,472.9,1976.1,405.7,1976.1z M405.7,2175.2c-42.3,0-76.5-34.2-76.5-76.5s34.2-76.5,76.5-76.5s76.5,34.2,76.5,76.5
			S448,2175.2,405.7,2175.2z"/>
	</g>
	<g>
		<path fill="#FFFFFF" d="M136.3,2147.2c-26.8,0-48.5-21.8-48.5-48.5s21.8-48.5,48.5-48.5s48.5,21.8,48.5,48.5
			S163,2147.2,136.3,2147.2L136.3,2147.2z"/>
		<path fill="#FFFFFF" d="M136.3,1976.1c-67.2,0-121.9,54.7-121.9,121.9c0,67.2,54.7,121.9,121.9,121.9s121.9-54.7,121.9-121.9
			C258.2,2030.8,204.1,1976.1,136.3,1976.1z M136.3,2175.2c-42.3,0-76.5-34.2-76.5-76.5s34.2-76.5,76.5-76.5s76.5,34.2,76.5,76.5
			S178.6,2175.2,136.3,2175.2z"/>
	</g>
	<g>
		<path fill="#FFFFFF" d="M943.2,2147.2c-26.8,0-48.5-21.8-48.5-48.5s21.8-48.5,48.5-48.5c26.8,0,48.5,21.8,48.5,48.5
			S969.9,2147.2,943.2,2147.2L943.2,2147.2z"/>
		<path fill="#FFFFFF" d="M943.2,1976.1c-67.2,0-121.9,54.7-121.9,121.9c0,67.2,54.7,121.9,121.9,121.9s121.9-54.7,121.9-121.9
			C1065.1,2030.8,1010.4,1976.1,943.2,1976.1z M943.2,2175.2c-42.3,0-76.5-34.2-76.5-76.5s34.2-76.5,76.5-76.5s76.5,34.2,76.5,76.5
			S985.5,2175.2,943.2,2175.2z"/>
	</g>
	<g>
		<path fill="#FFFFFF" d="M673.8,2147.2c-26.8,0-48.5-21.8-48.5-48.5s21.8-48.5,48.5-48.5s48.5,21.8,48.5,48.5
			S700.6,2147.2,673.8,2147.2L673.8,2147.2z"/>
		<path fill="#FFFFFF" d="M673.8,1976.1c-67.2,0-121.9,54.7-121.9,121.9c0,67.2,54.7,121.9,121.9,121.9s121.9-54.7,121.9-121.9
			C795.7,2030.8,741,1976.1,673.8,1976.1z M673.8,2175.2c-42.3,0-76.5-34.2-76.5-76.5s34.2-76.5,76.5-76.5s76.5,34.2,76.5,76.5
			S716.1,2175.2,673.8,2175.2z"/>
	</g>
</g>
</svg>
