<?xml version="1.0" encoding="utf-8"?>
<!-- Generator: Adobe Illustrator 18.1.1, SVG Export Plug-In . SVG Version: 6.00 Build 0)  -->
<svg version="1.1" id="General_layer" xmlns="http://www.w3.org/2000/svg" xmlns:xlink="http://www.w3.org/1999/xlink" x="0px"
	 y="0px" viewBox="-225.8 891 173.6 140" enable-background="new -225.8 891 173.6 140" xml:space="preserve">
<g>
	<path fill="#1E1E1E" d="M-62.2,894.4c-7.2,42.1,21,56.9,4.9,94.8l-35.5,0l-53.4-53.4c11.8-7.9,19.6-20.8,18-44.9L-62.2,894.4
		L-62.2,894.4z"/>
	<path fill="#1E1E1E" d="M-92.7,989.4l-53.4-53.4c-19.8,5.4-66.6,19.3-77.4,35.1c-5.6,8.2-0.3,18.5,10.2,18.4l84.7-0.1H-92.7z"/>
	<g>
		<path fill="#1E1E1E" d="M-160.6,1019.2c-4.3,0-7.8-3.5-7.8-7.8c0-4.3,3.5-7.8,7.8-7.8c4.3,0,7.8,3.5,7.8,7.8
			C-152.8,1015.7-156.3,1019.2-160.6,1019.2L-160.6,1019.2z"/>
		<path fill="#1E1E1E" d="M-160.6,991.7c-10.8,0-19.6,8.8-19.6,19.6c0,10.8,8.8,19.6,19.6,19.6c10.8,0,19.6-8.8,19.6-19.6
			C-141,1000.5-149.8,991.7-160.6,991.7z M-160.6,1023.7c-6.8,0-12.3-5.5-12.3-12.3c0-6.8,5.5-12.3,12.3-12.3
			c6.8,0,12.3,5.5,12.3,12.3C-148.3,1018.2-153.8,1023.7-160.6,1023.7z"/>
	</g>
	<g>
		<path fill="#1E1E1E" d="M-203.9,1019.2c-4.3,0-7.8-3.5-7.8-7.8c0-4.3,3.5-7.8,7.8-7.8c4.3,0,7.8,3.5,7.8,7.8
			C-196.1,1015.7-199.6,1019.2-203.9,1019.2L-203.9,1019.2z"/>
		<path fill="#1E1E1E" d="M-203.9,991.7c-10.8,0-19.6,8.8-19.6,19.6c0,10.8,8.8,19.6,19.6,19.6c10.8,0,19.6-8.8,19.6-19.6
			C-184.3,1000.5-193,991.7-203.9,991.7z M-203.9,1023.7c-6.8,0-12.3-5.5-12.3-12.3c0-6.8,5.5-12.3,12.3-12.3
			c6.8,0,12.3,5.5,12.3,12.3C-191.6,1018.2-197.1,1023.7-203.9,1023.7z"/>
	</g>
	<g>
		<path fill="#1E1E1E" d="M-74.2,1019.2c-4.3,0-7.8-3.5-7.8-7.8c0-4.3,3.5-7.8,7.8-7.8c4.3,0,7.8,3.5,7.8,7.8
			C-66.4,1015.7-69.9,1019.2-74.2,1019.2L-74.2,1019.2z"/>
		<path fill="#1E1E1E" d="M-74.2,991.7c-10.8,0-19.6,8.8-19.6,19.6c0,10.8,8.8,19.6,19.6,19.6c10.8,0,19.6-8.8,19.6-19.6
			C-54.6,1000.5-63.4,991.7-74.2,991.7z M-74.2,1023.7c-6.8,0-12.3-5.5-12.3-12.3c0-6.8,5.5-12.3,12.3-12.3
			c6.8,0,12.3,5.5,12.3,12.3C-61.9,1018.2-67.4,1023.7-74.2,1023.7z"/>
	</g>
	<g>
		<path fill="#1E1E1E" d="M-117.5,1019.2c-4.3,0-7.8-3.5-7.8-7.8c0-4.3,3.5-7.8,7.8-7.8c4.3,0,7.8,3.5,7.8,7.8
			C-109.7,1015.7-113.2,1019.2-117.5,1019.2L-117.5,1019.2z"/>
		<path fill="#1E1E1E" d="M-117.5,991.7c-10.8,0-19.6,8.8-19.6,19.6c0,10.8,8.8,19.6,19.6,19.6c10.8,0,19.6-8.8,19.6-19.6
			C-97.9,1000.5-106.7,991.7-117.5,991.7z M-117.5,1023.7c-6.8,0-12.3-5.5-12.3-12.3c0-6.8,5.5-12.3,12.3-12.3
			c6.8,0,12.3,5.5,12.3,12.3C-105.2,1018.2-110.7,1023.7-117.5,1023.7z"/>
	</g>
</g>
<g>
	<text transform="matrix(1 0 0 1 201 1721)"><tspan x="0" y="0" font-family="'MyriadPro-Regular'" font-size="12">1445800620_Invader_1.svg</tspan><tspan x="0" y="14.4" font-family="'MyriadPro-Regular'" font-size="12">1445800431_06_Pool.svg</tspan><tspan x="0" y="28.8" font-family="'MyriadPro-Regular'" font-size="12">1445800384_swiming-pool.svg</tspan><tspan x="0" y="43.2" font-family="'MyriadPro-Regular'" font-size="12">1445800366_blog.svg</tspan><tspan x="0" y="57.6" font-family="'MyriadPro-Regular'" font-size="12">1445800336_icon-game-controller-b.svg</tspan><tspan x="0" y="72" font-family="'MyriadPro-Regular'" font-size="12">1445800316_canopy.svg</tspan><tspan x="0" y="86.4" font-family="'MyriadPro-Regular'" font-size="12">1445800297_rugby.svg</tspan><tspan x="0" y="100.8" font-family="'MyriadPro-Regular'" font-size="12">1445800292_climbing.svg</tspan><tspan x="0" y="115.2" font-family="'MyriadPro-Regular'" font-size="12">1445800283_frisbee.svg</tspan><tspan x="0" y="129.6" font-family="'MyriadPro-Regular'" font-size="12">1445800269_bowling.svg</tspan><tspan x="0" y="144" font-family="'MyriadPro-Regular'" font-size="12">1445800264_football2.svg</tspan><tspan x="0" y="158.4" font-family="'MyriadPro-Regular'" font-size="12">1445800248_ping_pong.svg</tspan><tspan x="0" y="172.8" font-family="'MyriadPro-Regular'" font-size="12">1445800230_floating_guru.svg</tspan><tspan x="0" y="187.2" font-family="'MyriadPro-Regular'" font-size="12">1445800217_barbell.svg</tspan><tspan x="0" y="201.6" font-family="'MyriadPro-Regular'" font-size="12">1445800204_regular_biking.svg</tspan><tspan x="0" y="216" font-family="'MyriadPro-Regular'" font-size="12">1445800194_running.svg</tspan></text>
</g>
</svg>
