<?xml version="1.0" encoding="utf-8"?>
<!-- Generator: Adobe Illustrator 18.1.1, SVG Export Plug-In . SVG Version: 6.00 Build 0)  -->
<svg version="1.1" id="Layer_1" xmlns="http://www.w3.org/2000/svg" xmlns:xlink="http://www.w3.org/1999/xlink" x="0px" y="0px"
	 viewBox="88 511.4 904.1 897.8" enable-background="new 88 511.4 904.1 897.8" xml:space="preserve">
<g>
	
		<rect x="221.2" y="925.5" transform="matrix(0.7071 -0.7071 0.7071 0.7071 -522.2059 662.3392)" fill="#FFFFFF" width="634.5" height="72"/>
	
		<rect x="914.4" y="522.5" transform="matrix(0.7073 -0.707 0.707 0.7073 -118.5914 830.653)" fill="#FFFFFF" width="58.5" height="72"/>
	
		<rect x="107" y="1323.6" transform="matrix(-0.7073 0.707 -0.707 -0.7073 1193.8728 2224.8994)" fill="#FFFFFF" width="58.5" height="72"/>
	
		<rect x="673.8" y="550" transform="matrix(0.7075 -0.7067 0.7067 0.7075 -322.6833 743.4161)" fill="#FFFFFF" width="126" height="423"/>
	
		<rect x="807.3" y="504.9" transform="matrix(0.7075 -0.7068 0.7068 0.7075 -206.3747 794.7216)" fill="#FFFFFF" width="99" height="283.5"/>
	
		<rect x="280.1" y="943.6" transform="matrix(-0.7075 0.7067 -0.7067 -0.7075 1402.2184 1729.8787)" fill="#FFFFFF" width="126" height="423"/>
	
		<rect x="173.7" y="1132.1" transform="matrix(-0.7075 0.7068 -0.7068 -0.7075 1281.3828 2017.41)" fill="#FFFFFF" width="99" height="283.5"/>
</g>
</svg>
