<?xml version="1.0" encoding="utf-8"?>
<!-- Generator: Adobe Illustrator 18.1.1, SVG Export Plug-In . SVG Version: 6.00 Build 0)  -->
<svg version="1.1" id="Layer_1" xmlns="http://www.w3.org/2000/svg" xmlns:xlink="http://www.w3.org/1999/xlink" x="0px" y="0px"
	 viewBox="89.2 509.8 900.9 897.6" enable-background="new 89.2 509.8 900.9 897.6" xml:space="preserve">
<circle fill="#FFFFFF" cx="180" cy="600" r="90"/>
<path fill="#FFFFFF" d="M256.5,897L603,1243.5c-40.5,0-85.5-9-126-22.5c-18-4.5-81-13.5-108,9c-58.5,58.5-108,135-135,162
	s-67.5,18-108-22.5c-36-36-49.5-81-22.5-108C135,1239,211.5,1185,270,1131c27-27,13.5-99,9-108C261,982.5,256.5,937.5,256.5,897z
	 M886.5,613.5c-166.5-171-391.5-108-531,27C306,690,270,753,261,820.5L679.5,1239c67.5-13.5,130.5-45,180-94.5
	C994.5,1005,1057.5,780,886.5,613.5z"/>
</svg>
