<?xml version="1.0" encoding="utf-8"?>
<!-- Generator: Adobe Illustrator 18.1.1, SVG Export Plug-In . SVG Version: 6.00 Build 0)  -->
<svg version="1.1" id="Layer_1" xmlns="http://www.w3.org/2000/svg" xmlns:xlink="http://www.w3.org/1999/xlink" x="0px" y="0px"
	 viewBox="91.2 510 902.1 900" enable-background="new 91.2 510 902.1 900" xml:space="preserve">
<path fill="#FFFFFF" d="M639,1063.5c-13.5,13.5-31.5,13.5-49.5,0s-9-22.5-67.5-85.5s-72-54-85.5-67.5s-13.5-36,0-49.5l4.5-4.5
	c13.5-13.5,36-13.5,49.5,0s18,36,67.5,85.5s72,54,85.5,67.5s13.5,36,0,49.5L639,1063.5z"/>
<path fill="#FFFFFF" d="M526.5,1176c-13.5,13.5-31.5,13.5-49.5,0s-9-22.5-67.5-85.5s-72-54-85.5-67.5s-13.5-36,0-49.5l4.5-4.5
	c13.5-13.5,36-13.5,49.5,0s18,36,67.5,85.5s72,54,85.5,67.5s13.5,36,0,49.5L526.5,1176z"/>
<path fill="#FFFFFF" d="M751.5,951c-13.5,13.5-31.5,13.5-49.5,0s-9-22.5-67.5-85.5s-72-54-85.5-67.5s-13.5-36,0-49.5l4.5-4.5
	c13.5-13.5,36-13.5,49.5,0s18,36,67.5,85.5s72,54,85.5,67.5s13.5,36,0,49.5L751.5,951z"/>
<g>
	<g>
		<path fill="#FFFFFF" d="M765,600c63,0,103.5,13.5,112.5,27c45,45,45,324-148.5,522c-130.5,126-297,171-409.5,171
			c-63,0-103.5-13.5-112.5-27c-13.5-13.5-36-81-18-198c13.5-72,49.5-207,166.5-324C486,645,652.5,600,765,600 M765,510
			c-144,0-333,58.5-472.5,202.5C72,933,49.5,1266,144,1360.5c31.5,31.5,94.5,49.5,175.5,49.5c139.5,0,328.5-58.5,472.5-202.5
			c220.5-220.5,243-553.5,148.5-648C904.5,528,841.5,510,765,510L765,510z"/>
	</g>
</g>
<g>
	<line fill="none" x1="742.5" y1="757.5" x2="337.5" y2="1162.5"/>
	
		<rect x="539" y="673.6" transform="matrix(-0.7071 -0.7071 0.7071 -0.7071 243.0275 2020.6448)" fill="#FFFFFF" width="2" height="572.8"/>
</g>
<g>
	<line fill="none" x1="900" y1="600" x2="787.5" y2="712.5"/>
	
		<rect x="842.8" y="576.7" transform="matrix(-0.7071 -0.7071 0.7071 -0.7071 976.3729 1716.9772)" fill="#FFFFFF" width="2" height="159.1"/>
</g>
<g>
	<line fill="none" x1="292.5" y1="1207.5" x2="180" y2="1320"/>
	
		<rect x="235.3" y="1184.2" transform="matrix(-0.7071 -0.7071 0.7071 -0.7071 -490.2477 2324.4829)" fill="#FFFFFF" width="2" height="159.1"/>
</g>
</svg>
