<?xml version="1.0" ?><!DOCTYPE svg  PUBLIC '-//W3C//DTD SVG 1.1//EN'  'http://www.w3.org/Graphics/SVG/1.1/DTD/svg11.dtd'><svg enable-background="new 0 0 633.48 633.48" height="633.48px" id="Layer_1" version="1.1" viewBox="0 0 633.48 633.48" width="633.48px" xml:space="preserve" xmlns="http://www.w3.org/2000/svg" xmlns:xlink="http://www.w3.org/1999/xlink"><g><path d="M316.74,0C141.809,0,0,141.809,0,316.74c0,174.93,141.809,316.74,316.74,316.74S633.48,491.67,633.48,316.74   C633.48,141.809,491.672,0,316.74,0z M360.703,462.535c-74.494,7.721-141.076-45.762-148.713-119.453   c-7.639-73.694,46.557-139.692,121.053-147.414c74.494-7.721,141.076,45.758,148.713,119.454   C489.395,388.814,435.197,454.813,360.703,462.535z"/><path d="M379.82,329.395c-2.867-2.51-5.99-4.697-9.283-6.625c-1.047-0.614-7.537-4.925-8.404-4.298   c5.414-3.847,11.107-7.919,14.502-13.799c2.488-4.301,4.01-10.511,4.236-15.427c0.42-9.077-4.531-18.046-11.326-23.896   c-7.904-6.802-20.41-8.917-30.641-7.857c-8.088,0.839-15.861,4.508-22.338,9.289c-9.98,7.364-14.785,20.04-13.971,32.137   c1.09,16.195,13.828,28.539,28.379,34.189c-2.053,0.937-6.27,3.379-7.709,4.504c-3.342,2.623-6.479,5.533-9.229,8.766   c-12.635,14.847-7.635,34.146,5.939,46.696c3.01,2.781,7.158,4.937,11.049,6.181c14.955,4.779,33.777,1.52,46.584-7.344   c11.723-8.111,17.838-23.166,16.137-37.062C392.537,344.956,387.314,335.952,379.82,329.395z M325.453,298.861   c-2.283-2.867-3.621-6.193-4.014-9.979c-0.557-5.362,0.926-10.114,4.441-14.271c3.516-4.154,8.127-6.526,13.838-7.119   c5.713-0.592,10.654,0.919,14.832,4.545c4.174,3.617,6.652,9.187,7.432,16.703c0.578,5.583,0.277,10.463-0.898,14.643   c-0.809,2.83-2.512,5.828-5.115,8.991l-1.953,2.375c-9.75-3.837-15.754-6.429-18.01-7.776   C331.254,304.431,327.736,301.729,325.453,298.861z M369.098,383.293c-3.477,4.195-8.613,6.641-15.41,7.346   c-6.432,0.668-12.164-1.206-17.186-5.625c-5.027-4.417-7.992-10.977-8.893-19.678c-0.836-8.057,0.834-15.083,5.006-21.066   c3.107-4.357,5.234-6.598,6.385-6.717c0.75-0.136,5.037,1.673,12.857,5.437c7.818,3.755,13.207,7.396,16.166,10.922   c2.957,3.524,4.717,7.935,5.266,13.228C373.971,373.717,372.57,379.104,369.098,383.293z"/></g></svg>