<?xml version="1.0" encoding="utf-8"?>
<!-- Generator: Adobe Illustrator 18.1.1, SVG Export Plug-In . SVG Version: 6.00 Build 0)  -->
<svg version="1.1" id="Layer_1" xmlns="http://www.w3.org/2000/svg" xmlns:xlink="http://www.w3.org/1999/xlink" x="0px" y="0px"
	 viewBox="-222 1064.5 1079.8 1080" enable-background="new -222 1064.5 1079.8 1080" xml:space="preserve">
<g>
	<path fill="#FFFFFF" d="M317.9,1064.5c-298.2,0-539.9,241.7-539.9,540.1c0,298.2,241.7,539.9,539.9,539.9s539.9-241.7,539.9-539.9
		C858,1306.2,616.3,1064.5,317.9,1064.5z M392.9,1853.1c-127,13.1-240.5-78.1-253.5-203.7s79.4-238.2,206.5-251.3
		c127-13.1,240.5,78.1,253.5,203.7C612.3,1727.3,519.9,1839.8,392.9,1853.1z"/>
	<path fill="#FFFFFF" d="M425.5,1626.1c-4.9-4.3-10.2-8-15.9-11.3c-1.7-1-12.8-8.4-14.3-7.3c9.2-6.5,18.9-13.5,24.7-23.5
		c4.3-7.3,6.8-17.9,7.2-26.3c0.7-15.5-7.7-30.7-19.3-40.7c-13.5-11.6-34.8-15.2-52.2-13.5c-13.8,1.4-27.1,7.7-38,15.9
		c-17,12.6-25.2,34.1-23.9,54.7c1.9,27.6,23.5,48.6,48.4,58.3c-3.6,1.5-10.7,5.8-13.1,7.7c-5.6,4.4-11.1,9.4-15.7,15
		c-21.5,25.2-13,58.1,10.1,79.6c5.1,4.8,12.3,8.4,18.8,10.6c25.6,8.2,57.6,2.6,79.4-12.4c19.9-13.8,30.3-39.6,27.4-63.2
		C447.1,1652.7,438.3,1637.3,425.5,1626.1z M332.9,1574.1c-3.9-4.9-6.1-10.6-6.8-17c-1-9.2,1.5-17.2,7.5-24.4
		c6-7.2,13.8-11.1,23.5-12.1s18.2,1.5,25.2,7.7c7.2,6.1,11.4,15.7,12.6,28.5c1,9.5,0.5,17.9-1.5,24.9c-1.4,4.8-4.3,9.9-8.7,15.3
		l-3.4,4.1c-16.7-6.5-26.9-10.9-30.7-13.3C342.8,1583.6,336.7,1578.8,332.9,1574.1z M407.2,1718c-6,7.2-14.7,11.3-26.3,12.4
		c-10.9,1.2-20.8-2-29.3-9.5s-13.6-18.8-15.2-33.6c-1.4-13.8,1.4-25.7,8.5-36c5.3-7.5,8.9-11.3,10.9-11.4c1.4-0.2,8.5,2.9,22,9.2
		c13.3,6.5,22.5,12.6,27.6,18.6c5.1,6,8,13.5,9,22.5C415.6,1701.6,413.2,1710.8,407.2,1718z"/>
</g>
</svg>
