<?xml version="1.0" encoding="utf-8"?>
<!-- Generator: Adobe Illustrator 18.1.1, SVG Export Plug-In . SVG Version: 6.00 Build 0)  -->
<svg version="1.1" id="Layer_1" xmlns="http://www.w3.org/2000/svg" xmlns:xlink="http://www.w3.org/1999/xlink" x="0px" y="0px"
	 viewBox="0 107.9 945.2 674.7" enable-background="new 0 107.9 945.2 674.7" xml:space="preserve">
<path fill="#FFFFFF" d="M729.5,116.1c-94.7-28.1-124.5,25.1-256.9,25.1s-162.2-53.4-256.9-25.1C121,144.2,73.7,243.6,29,430
	C-15.7,616.7-7.5,751.5,45.2,776.6s112.2-32.5,169-103.6c46-55.7,69-59.3,258.4-59.3c189.2,0,208.8,1.5,258.4,59.3
	c56.7,71.1,116.2,128.7,169,103.6s61-159.9,16.2-346.6C871.5,243.6,824,144.4,729.5,116.1z M203,461.2c-45.8,0-82.9-37.3-82.9-83.5
	c0-46,37.1-83.5,82.9-83.5s82.9,37.5,82.9,83.5S248.8,461.2,203,461.2z M585.9,418.8c-22.4,0-40.7-18.4-40.7-40.9
	c0-22.6,18.4-40.9,40.7-40.9c22.6,0,40.9,18.4,40.9,40.9C626.6,400.5,608.4,418.8,585.9,418.8z M674.9,508.3
	c-22.4,0-40.7-18.4-40.7-40.9c0-22.8,18.4-40.9,40.7-40.9c22.6,0,40.9,18.4,40.9,40.9C715.8,490.1,697.5,508.3,674.9,508.3z
	 M674.9,329.2c-22.4,0-40.7-18.4-40.7-40.9c0-22.6,18.4-40.9,40.7-40.9c22.6,0,40.9,18.4,40.9,40.9
	C715.8,310.8,697.5,329.2,674.9,329.2z M764.1,418.8c-22.6,0-40.7-18.4-40.7-40.9c0-22.6,18.4-40.9,40.7-40.9
	c22.4,0,40.7,18.4,40.7,40.9C804.8,400.5,786.7,418.8,764.1,418.8z"/>
</svg>
