<?xml version="1.0" encoding="utf-8"?>
<!-- Generator: Adobe Illustrator 18.1.1, SVG Export Plug-In . SVG Version: 6.00 Build 0)  -->
<svg version="1.1" id="Camada_1" xmlns="http://www.w3.org/2000/svg" xmlns:xlink="http://www.w3.org/1999/xlink" x="0px" y="0px"
	 viewBox="0 0 430.8 182" enable-background="new 0 0 430.8 182" xml:space="preserve">
<g>
	<g>
		<g>
			<circle fill="#F39100" cx="286.6" cy="59.3" r="34.3"/>
		</g>
		<g>
			<path fill="#F39100" d="M286.9,137.9l-1.1-1.3c-1.8-2.1-45-51.3-45.1-76.1c-0.1-25.3,20.4-46,45.7-46.1l0.2,0
				c25.2,0,45.8,20.5,45.9,45.7c0.1,24.8-42.6,74.4-44.4,76.5L286.9,137.9z M286.6,17.4l-0.2,0c-23.6,0.1-42.8,19.4-42.7,43.1
				c0.1,21.5,36.3,64.7,43.2,72.8c6.9-8.1,42.7-51.6,42.6-73.2C329.3,36.6,310.1,17.4,286.6,17.4z"/>
		</g>
		<g>
			<g>
				<g>
					<path fill="#FFFFFF" d="M285.4,67.3c1.1-0.1,2.1,0.8,2,1.9c-0.1,0.8-0.7,1.4-1.5,1.5c-1.1,0.1-2.1-0.8-2-1.9
						C284,68,284.6,67.4,285.4,67.3z"/>
				</g>
				<g>
					<path fill="#FFFFFF" d="M286,65.3c-2.4-0.2-4.3,1.7-4.1,4.1c0.2,1.7,1.6,3.1,3.3,3.3c2.4,0.2,4.3-1.7,4.1-4.1
						C289.1,66.8,287.7,65.5,286,65.3z M285.6,71.4c-1.4,0-2.5-1.1-2.4-2.5c0.1-1.2,1-2.2,2.3-2.3c1.4-0.1,2.6,1,2.6,2.4
						C288.1,70.3,287,71.4,285.6,71.4z"/>
				</g>
			</g>
			<g>
				<g>
					<path fill="#FFFFFF" d="M288.2,72.9c-0.8,0.5-1.6,0.8-2.6,0.8c-0.4,0-0.7-0.1-1.1-0.1c0.2,1,1.5,2.6,2,5c0.8,4,1.3,3.8,3.1,6.4
						c1.8,2.6,5.1,5.3,5.3,5.2c0.2-0.1-0.1-4.8-0.6-6C294,83,289.2,74.6,288.2,72.9z"/>
				</g>
				<g>
					<path fill="#FFFFFF" d="M312.1,65c0,0-3.3-2.3-13.6-6c-10.4-3.7-22.3-5.7-22.3-5.7l-0.9-0.6c0,0,0.4-0.1,1.3,0.1
						c0.9,0.1,6.7,0.3,10.8,1.4s12.1,3.2,13.5,3.8c1.4,0.6,3.7,1.1,7.2,0.9c3.5-0.2,5.3,0,5.3,0s-5.1-3.1-17.8-5S274.5,52,274.5,52
						l-0.8-0.6c0,0,4.2-0.1,9,0.1c4.8,0.1,14.4,0.8,19,1.6c4.5,0.7,10.5-1.3,10.5-1.3s0.1-1.1-12.3-2.1c-12.5-1-26.9,1.4-26.9,1.4
						l-0.5-0.5c0,0,1.4-0.6,4.3-1s21.8-2.5,23.3-2.6c1.4-0.1,7.9-3.9,7.9-3.9s-2.4-0.4-9.2-0.1c-6.8,0.3-26.9,7.2-26.9,7.2
						s0.1-0.1,0.3-0.2c0.5-0.3,1.9-1,4.9-2.3c4.1-1.8,14.3-6.1,17.5-6.8c3.2-0.8,7.3-4,7.3-4s-1.3-0.5-7.6,1.1
						c-6.3,1.5-22.5,11.8-22.5,11.8l-0.5-0.3c0,0,0.1-0.2,3.5-2.5c3.4-2.4,10.3-7.4,13.6-9c3.4-1.5,5.6-5.3,5.6-5.3s-6.2,2.2-8.7,4
						c-2.5,1.8-14.1,12.7-14.1,12.7l-0.3-0.3c0,0,9.6-11.7,12.1-13.5s3.3-5,3.3-5s-3.4,2-5,3.4c-1.7,1.3-12,14.9-12,14.9
						s-0.1-1.4,2-5s6.7-9.8,6.7-9.8l1.5-3.4c0,0-2.6,1.7-6,5.6s-6.7,11.1-6.7,11.1l-2.2-0.4l-2.3,6.7c0,0,6,2.2,9.5,4.6
						c2.5,1.8,7.7,6.1,10.2,8.2c0.9-1.3,2.5-2.1,4.2-2c2.5,0.2,4.3,2.3,4.3,4.7l0,0c3,0.3,5.4,2.3,7.1,4c2,2,2.3,2.7,4.5,3.4
						c2.2,0.7,6.3,2.3,6.3,2.3s-1.4-2.7-6-6.9c-4.5-4.2-17.5-9-17.5-9l-2.4-2.2c0,0,3.4,0.8,5.6,1.6c2.3,0.7,10.9,4.2,15,6.9
						s8.3,3.3,8.3,3.3s-0.5-2.9-9.3-7c-8.9-4-20.9-7.1-20.9-7.1l-2.1-1.8c0,0,4.6,0.3,12.1,2.9c7.5,2.7,13.2,4.8,13.8,5
						c0.6,0.3,5.3,1.2,6.8,1.2S312.1,65,312.1,65z"/>
				</g>
				<g>
					<path fill="#FFFFFF" d="M290.4,69.9l-0.1-0.2c-0.1,1.1-0.7,2.1-1.5,2.9c0.5,0.8,3.4,2.5,5.2,4.3c1.8,1.8,2.7,2.8,3.8,4
						c1.1,1.2,4.3,4.7,4.3,4.7s-0.8-2.3-2.1-5.4C298.5,77,290.4,69.9,290.4,69.9z"/>
				</g>
			</g>
		</g>
		<g>
			<g>
				<path fill="#13846A" d="M24.7,89.9c0,4.3,0.7,7.6,2,9.9c1.3,2.2,4,3.3,8.1,3.3c2.5,0,4.8-0.3,6.9-1c2.1-0.7,4-1.4,5.6-2.3
					l2.8,8.6c-2.2,1.4-4.6,2.5-7.2,3.3s-5.9,1.1-9.9,1.1c-6.8,0-11.9-1.8-15.1-5.4c-3.3-3.6-4.9-9.4-4.9-17.4V42.5H0.5v-9.8H13
					l3.1-22.5h8.6v22.5H49v9.8H24.7V89.9z"/>
			</g>
			<g>
				<path fill="#13846A" d="M78.8,46.7c1.1-1.9,2.4-3.7,3.8-5.6c1.5-1.9,3.1-3.5,5-5c1.8-1.5,3.9-2.7,6.1-3.6
					c2.2-0.9,4.7-1.4,7.6-1.4c3.3,0,5.8,0.4,7.5,1.2c1.7,0.8,2.8,1.3,3.1,1.6l-3.4,11.9c-2.3-2-5.3-2.9-9.1-2.9
					c-4.5,0-8.4,1.2-12,3.7c-3.5,2.5-6.4,6-8.6,10.6v54.2H66.8V32.7h9.6L78.8,46.7z"/>
			</g>
			<g>
				<path fill="#13846A" d="M125.2,8.3c0-2.3,0.7-4.2,2.1-5.9c1.4-1.6,3.5-2.4,6.2-2.4c2.8,0,4.9,0.8,6.3,2.4c1.4,1.6,2,3.6,2,5.9
					s-0.7,4.2-2,5.8c-1.4,1.6-3.4,2.4-6.3,2.4c-2.7,0-4.8-0.8-6.2-2.4C125.9,12.5,125.2,10.6,125.2,8.3z M139.6,111.4h-12.1V32.7
					h12.1V111.4z"/>
			</g>
			<g>
				<path fill="#13846A" d="M165.3,1.6h12.1v43.8c1.1-1.5,2.5-3.1,4.3-4.8c1.8-1.7,3.9-3.2,6.2-4.6c2.3-1.4,4.9-2.5,7.8-3.4
					c2.9-0.9,6-1.4,9.4-1.4c5.1,0,9.6,1.1,13.4,3.2c3.9,2.1,7.1,5,9.6,8.6c2.6,3.6,4.5,7.9,5.8,12.7c1.3,4.8,2,9.9,2,15.2
					c0,7-0.8,13-2.4,18.2c-1.6,5.2-3.8,9.6-6.7,13.1c-2.9,3.5-6.3,6.2-10.3,7.9c-4,1.7-8.4,2.6-13.2,2.6c-6,0-11.2-1.5-15.8-4.5
					c-4.6-3-7.9-6.6-10.1-10.8l-2.4,13.8h-9.6V1.6z M177.3,73.9c0,4,0.6,7.7,1.9,11.2c1.2,3.4,3,6.4,5.1,9c2.2,2.6,4.7,4.5,7.7,5.9
					c2.9,1.4,6.1,2.1,9.4,2.1c2.9,0,5.8-0.5,8.5-1.6c2.7-1.1,5.1-2.9,7.2-5.3c2.1-2.4,3.7-5.6,5-9.6c1.2-4,1.9-8.8,1.9-14.6
					c0-9.8-2-17-5.9-21.7c-3.9-4.7-9-7.1-15.1-7.1c-5.3,0-10.2,1.3-14.5,4c-4.3,2.7-8,6.1-11.1,10.2V73.9z"/>
			</g>
		</g>
		<g>
			<g>
				<path fill="#13846A" d="M363.8,103.4c6.6,0,11.3-1.2,14.2-3.7c2.8-2.4,4.2-5.4,4.2-8.9c0-4.3-1.8-7.6-5.5-9.9
					c-3.7-2.2-8.2-4.1-13.5-5.6c-3.5-1-6.7-2.1-9.5-3.4c-2.9-1.3-5.4-2.9-7.5-4.7c-2.1-1.8-3.7-4-4.9-6.5c-1.1-2.5-1.7-5.5-1.7-9
					c0-6.6,2.5-11.7,7.6-15.2c5-3.5,11.8-5.3,20.3-5.3c4.6,0,8.9,0.4,13,1.3c4.1,0.9,7.8,2.1,10.9,3.6l-2.8,9.3
					c-2.9-1.4-6.1-2.5-9.4-3.3c-3.4-0.8-7-1.2-10.8-1.2c-5.9,0-10.2,1-13,2.9c-2.8,2-4.2,4.6-4.2,7.8c0,3.8,1.5,6.7,4.4,8.6
					s6.8,3.7,11.7,5.2c8.8,2.7,15.4,5.9,20,9.7c4.5,3.7,6.8,9,6.8,15.9c0,6.6-2.4,11.9-7.2,15.9c-4.8,4-12.3,5.9-22.5,5.9
					c-5,0-9.7-0.4-14-1.3c-4.3-0.9-8-2.1-10.9-3.7l2.8-9c2.8,1.3,6.1,2.4,9.9,3.3C355.9,103,359.8,103.4,363.8,103.4z"/>
			</g>
		</g>
	</g>
	<g>
		<g>
			<path fill="#4D4D4D" d="M19.7,169.4c-1,0.8-2.3,1.4-3.8,1.9c-1.5,0.5-3.1,0.7-4.8,0.7c-1.9,0-3.6-0.3-5-0.9
				c-1.4-0.6-2.6-1.5-3.5-2.7c-0.9-1.2-1.6-2.5-2-4.1c-0.4-1.6-0.7-3.4-0.7-5.4c0-4.3,1-7.5,2.9-9.8c1.9-2.2,4.6-3.4,8.2-3.4
				c1.1,0,2.3,0.1,3.4,0.4c1.1,0.3,2.2,0.7,3.1,1.4c0.9,0.7,1.6,1.7,2.2,3c0.6,1.3,0.9,3,0.9,5.1c0,1.1-0.1,2.3-0.3,3.7H4.2
				c0,1.5,0.2,2.8,0.5,3.9c0.3,1.1,0.8,2.1,1.4,2.9c0.6,0.8,1.5,1.4,2.5,1.8c1,0.4,2.3,0.6,3.7,0.6c1.1,0,2.3-0.2,3.4-0.6
				c1.1-0.4,2-0.9,2.6-1.4L19.7,169.4z M11.1,149.2c-2,0-3.6,0.5-4.7,1.6c-1.2,1-1.9,2.8-2.1,5.3h12.4c0-2.5-0.5-4.3-1.5-5.3
				C14.2,149.7,12.9,149.2,11.1,149.2z"/>
		</g>
		<g>
			<path fill="#4D4D4D" d="M43,171.4v-14.3c0-2.6-0.4-4.6-1.1-5.9c-0.8-1.3-2.1-2-4.1-2c-1.8,0-3.2,0.5-4.4,1.4
				c-1.2,1-2,2.1-2.4,3.6v17.2h-4v-25.1h2.8l0.8,3.1h0.2c0.8-1.1,1.9-1.9,3.2-2.6c1.4-0.7,3-1,4.8-1c1.4,0,2.6,0.2,3.6,0.5
				c1,0.3,1.9,0.9,2.6,1.7c0.7,0.8,1.2,1.9,1.6,3.2c0.4,1.4,0.5,3.1,0.5,5.1v15.1H43z"/>
		</g>
		<g>
			<path fill="#4D4D4D" d="M71.4,169.7c-1,0.7-2.2,1.3-3.6,1.7c-1.4,0.4-2.8,0.6-4.3,0.6c-1.9,0-3.6-0.3-4.9-0.9
				c-1.3-0.6-2.4-1.5-3.3-2.7c-0.9-1.2-1.5-2.5-1.9-4.2c-0.4-1.6-0.6-3.4-0.6-5.4c0-4.2,0.9-7.5,2.8-9.8c1.9-2.3,4.6-3.4,8.1-3.4
				c1.6,0,3,0.1,4.1,0.4c1.1,0.3,2.1,0.6,3,1.1l-1.2,3.5c-0.8-0.4-1.6-0.8-2.6-1c-0.9-0.3-1.9-0.4-3-0.4c-4.7,0-7.1,3.2-7.1,9.6
				c0,1.3,0.1,2.5,0.4,3.6c0.3,1.2,0.7,2.2,1.3,3.1c0.6,0.9,1.4,1.6,2.3,2.1c1,0.5,2.1,0.8,3.5,0.8c1.2,0,2.3-0.2,3.2-0.6
				c1-0.4,1.7-0.8,2.3-1.3L71.4,169.7z"/>
		</g>
		<g>
			<path fill="#4D4D4D" d="M74.4,158.8c0-4.2,0.9-7.5,2.8-9.8c1.9-2.3,4.6-3.4,8.2-3.4c1.9,0,3.5,0.3,4.9,0.9
				c1.4,0.6,2.5,1.5,3.4,2.7c0.9,1.2,1.6,2.5,2,4.2c0.4,1.6,0.7,3.4,0.7,5.4c0,4.2-0.9,7.5-2.8,9.8c-1.9,2.3-4.6,3.4-8.2,3.4
				c-1.9,0-3.5-0.3-4.9-0.9c-1.4-0.6-2.5-1.5-3.4-2.7c-0.9-1.2-1.6-2.5-2-4.2C74.6,162.6,74.4,160.8,74.4,158.8z M78.5,158.8
				c0,1.3,0.1,2.5,0.4,3.7c0.3,1.2,0.6,2.2,1.2,3.1c0.5,0.9,1.2,1.6,2.1,2.1c0.9,0.5,1.9,0.8,3.2,0.8c4.5,0,6.8-3.2,6.8-9.6
				c0-1.3-0.1-2.5-0.4-3.7c-0.3-1.2-0.6-2.2-1.2-3.1c-0.5-0.9-1.2-1.6-2.1-2.1c-0.9-0.5-1.9-0.8-3.2-0.8
				C80.8,149.2,78.5,152.4,78.5,158.8z"/>
		</g>
		<g>
			<path fill="#4D4D4D" d="M118.8,171.4v-14.3c0-2.6-0.4-4.6-1.1-5.9c-0.8-1.3-2.1-2-4.1-2c-1.8,0-3.2,0.5-4.4,1.4
				c-1.2,1-2,2.1-2.4,3.6v17.2h-4v-25.1h2.8l0.8,3.1h0.2c0.8-1.1,1.9-1.9,3.2-2.6c1.4-0.7,3-1,4.8-1c1.4,0,2.6,0.2,3.6,0.5
				c1,0.3,1.9,0.9,2.6,1.7c0.7,0.8,1.2,1.9,1.6,3.2c0.4,1.4,0.5,3.1,0.5,5.1v15.1H118.8z"/>
		</g>
		<g>
			<path fill="#4D4D4D" d="M126.8,146.3h3.9v-5l4-1.2v6.1h6.8v3.5h-6.8v13.9c0,1.7,0.2,3,0.7,3.7c0.4,0.7,1.2,1.1,2.2,1.1
				c0.9,0,1.6-0.1,2.2-0.3c0.6-0.2,1.3-0.4,2-0.7l0.9,3.1c-0.9,0.4-1.9,0.8-3,1.1c-1.1,0.3-2.2,0.4-3.5,0.4c-2,0-3.5-0.6-4.3-1.7
				c-0.8-1.2-1.3-3.1-1.3-5.8v-14.6h-3.9V146.3z"/>
		</g>
		<g>
			<path fill="#4D4D4D" d="M158.9,150.2c-1-0.3-2-0.5-2.9-0.5c-1.4,0-2.6,0.4-3.4,1.2c-0.8,0.8-1.4,1.8-1.6,3v17.6h-4v-25.1h2.8
				l0.8,3.1h0.2c0.6-1.1,1.4-2,2.3-2.6c0.9-0.6,2-0.9,3.4-0.9c1,0,2.1,0.2,3.3,0.5L158.9,150.2z"/>
		</g>
		<g>
			<path fill="#4D4D4D" d="M182.5,169.4c-1,0.8-2.3,1.4-3.8,1.9c-1.5,0.5-3.1,0.7-4.8,0.7c-1.9,0-3.6-0.3-5-0.9
				c-1.4-0.6-2.6-1.5-3.5-2.7c-0.9-1.2-1.6-2.5-2-4.1c-0.4-1.6-0.7-3.4-0.7-5.4c0-4.3,1-7.5,2.9-9.8c1.9-2.2,4.6-3.4,8.2-3.4
				c1.1,0,2.3,0.1,3.4,0.4c1.1,0.3,2.2,0.7,3.1,1.4c0.9,0.7,1.6,1.7,2.2,3c0.6,1.3,0.9,3,0.9,5.1c0,1.1-0.1,2.3-0.3,3.7h-16.1
				c0,1.5,0.2,2.8,0.5,3.9c0.3,1.1,0.8,2.1,1.4,2.9c0.6,0.8,1.5,1.4,2.5,1.8c1,0.4,2.3,0.6,3.7,0.6c1.1,0,2.3-0.2,3.4-0.6
				c1.1-0.4,2-0.9,2.6-1.4L182.5,169.4z M173.8,149.2c-2,0-3.6,0.5-4.7,1.6c-1.2,1-1.9,2.8-2.1,5.3h12.4c0-2.5-0.5-4.3-1.5-5.3
				C177,149.7,175.6,149.2,173.8,149.2z"/>
		</g>
		<g>
			<path fill="#4D4D4D" d="M214.1,164.6c0-1-0.3-1.8-0.9-2.4c-0.6-0.6-1.3-1-2.2-1.4c-0.9-0.4-1.9-0.8-2.9-1.1s-2-0.8-2.9-1.4
				c-0.9-0.6-1.6-1.3-2.2-2.1c-0.6-0.9-0.9-2-0.9-3.5c0-2.4,0.7-4.2,2.1-5.3c1.4-1.1,3.3-1.7,5.7-1.7c1.8,0,3.3,0.2,4.5,0.5
				c1.2,0.3,2.3,0.7,3.2,1.1l-1,3.3c-0.8-0.4-1.7-0.7-2.8-1c-1.1-0.3-2.2-0.4-3.5-0.4c-1.5,0-2.6,0.3-3.2,0.8c-0.7,0.5-1,1.4-1,2.6
				c0,0.9,0.3,1.5,0.9,2c0.6,0.5,1.3,0.9,2.2,1.3c0.9,0.4,1.9,0.8,2.9,1.1c1.1,0.4,2,0.9,2.9,1.5c0.9,0.6,1.6,1.4,2.2,2.3
				c0.6,0.9,0.9,2.1,0.9,3.6c0,1.1-0.2,2.1-0.5,3c-0.4,0.9-0.9,1.7-1.6,2.4c-0.7,0.7-1.6,1.2-2.7,1.6c-1.1,0.4-2.4,0.6-3.8,0.6
				c-1.9,0-3.5-0.2-4.9-0.6c-1.3-0.4-2.5-0.8-3.4-1.3l1.2-3.4c0.8,0.4,1.8,0.8,3,1.2c1.2,0.4,2.5,0.6,3.8,0.6c1.4,0,2.6-0.3,3.6-0.9
				C213.6,167.1,214.1,166,214.1,164.6z"/>
		</g>
		<g>
			<path fill="#4D4D4D" d="M227.8,146.3v14.3c0,1.3,0.1,2.4,0.2,3.4c0.2,1,0.4,1.8,0.8,2.5c0.4,0.7,0.9,1.1,1.5,1.5
				c0.6,0.3,1.4,0.5,2.4,0.5c0.9,0,1.7-0.1,2.4-0.4c0.7-0.3,1.3-0.7,1.9-1.2s1-1.1,1.5-1.7c0.4-0.7,0.8-1.3,1-2.1v-16.8h4v18
				c0,1.2,0,2.4,0.1,3.7c0.1,1.3,0.2,2.4,0.4,3.4h-2.8l-1-4H240c-0.8,1.3-1.8,2.4-3.1,3.3c-1.3,0.9-3,1.3-5,1.3
				c-1.3,0-2.5-0.2-3.5-0.5c-1-0.3-1.9-0.9-2.6-1.7c-0.7-0.8-1.2-1.9-1.6-3.2c-0.4-1.4-0.5-3.1-0.5-5.1v-15.1H227.8z"/>
		</g>
		<g>
			<path fill="#4D4D4D" d="M250.8,148.2c1.3-0.8,2.8-1.3,4.4-1.7c1.7-0.4,3.5-0.6,5.3-0.6c1.7,0,3.1,0.2,4.2,0.7
				c1.1,0.5,1.9,1.1,2.4,1.8c0.6,0.8,0.9,1.6,1.1,2.5s0.3,1.8,0.3,2.7c0,2-0.1,4-0.2,5.9c-0.1,1.9-0.2,3.7-0.2,5.4
				c0,1.2,0,2.4,0.2,3.5c0.1,1.1,0.3,2.1,0.6,3.1h-3l-1.1-3.5h-0.3c-0.3,0.5-0.7,0.9-1.1,1.4c-0.5,0.5-1,0.9-1.6,1.2
				c-0.6,0.4-1.4,0.6-2.2,0.9c-0.8,0.2-1.8,0.4-2.9,0.4c-1.1,0-2.1-0.2-3-0.5c-0.9-0.3-1.7-0.8-2.4-1.4c-0.7-0.6-1.2-1.4-1.6-2.2
				c-0.4-0.9-0.6-1.9-0.6-3c0-1.5,0.3-2.7,0.9-3.7c0.6-1,1.4-1.8,2.5-2.4c1.1-0.6,2.4-1,3.9-1.3c1.5-0.3,3.2-0.4,5-0.4
				c0.5,0,0.9,0,1.4,0c0.5,0,0.9,0,1.4,0.1c0.1-1,0.2-1.9,0.2-2.7c0-1.8-0.4-3.1-1.1-3.9c-0.7-0.7-2.1-1.1-4-1.1
				c-0.6,0-1.2,0-1.8,0.1c-0.7,0.1-1.3,0.2-2,0.4c-0.7,0.2-1.3,0.3-2,0.6c-0.6,0.2-1.2,0.5-1.6,0.7L250.8,148.2z M257.9,168.3
				c0.9,0,1.8-0.1,2.5-0.4c0.7-0.3,1.4-0.6,1.9-1c0.5-0.4,1-0.8,1.3-1.3c0.3-0.5,0.6-0.9,0.8-1.4v-4.2c-0.5,0-0.9-0.1-1.4-0.1
				c-0.5,0-1,0-1.4,0c-1,0-2,0.1-3,0.2c-1,0.1-1.9,0.3-2.6,0.7c-0.8,0.3-1.4,0.8-1.8,1.3c-0.5,0.6-0.7,1.2-0.7,2.1
				c0,1.2,0.4,2.1,1.3,2.9C255.5,167.9,256.6,168.3,257.9,168.3z"/>
		</g>
		<g>
			<path fill="#4D4D4D" d="M308.7,172.5c0,3.2-0.9,5.6-2.6,7.2c-1.7,1.5-4.3,2.3-7.6,2.3c-2,0-3.6-0.1-4.8-0.4
				c-1.2-0.3-2.3-0.6-3.1-1l1.1-3.4c0.8,0.3,1.6,0.6,2.6,0.9c0.9,0.3,2.2,0.4,3.7,0.4c1.4,0,2.5-0.1,3.4-0.4
				c0.9-0.3,1.6-0.7,2.1-1.3c0.5-0.6,0.9-1.3,1.1-2.3c0.2-0.9,0.3-2,0.3-3.3v-2.4h-0.2c-0.7,1-1.5,1.7-2.6,2.2s-2.4,0.8-4.1,0.8
				c-3.4,0-5.9-1.1-7.4-3.2c-1.6-2.1-2.4-5.4-2.4-9.8c0-4.3,1-7.5,3.1-9.8c2-2.2,5-3.3,9-3.3c1.9,0,3.5,0.2,4.9,0.5s2.6,0.7,3.6,1.1
				V172.5z M298.6,168.4c1.7,0,3-0.4,4-1.3s1.7-2.2,2.1-4v-12.8c-1.3-0.6-3-1-5.1-1c-2.3,0-4.1,0.8-5.4,2.3c-1.3,1.5-2,3.9-2,7.2
				c0,1.4,0.1,2.7,0.4,3.9c0.2,1.2,0.6,2.2,1.1,3c0.5,0.8,1.2,1.5,2,2C296.4,168.2,297.4,168.4,298.6,168.4z"/>
		</g>
		<g>
			<path fill="#4D4D4D" d="M316,148.2c1.3-0.8,2.8-1.3,4.4-1.7c1.7-0.4,3.5-0.6,5.3-0.6c1.7,0,3.1,0.2,4.2,0.7
				c1.1,0.5,1.9,1.1,2.4,1.8c0.6,0.8,0.9,1.6,1.1,2.5s0.3,1.8,0.3,2.7c0,2,0,4-0.2,5.9c-0.1,1.9-0.2,3.7-0.2,5.4
				c0,1.2,0,2.4,0.2,3.5c0.1,1.1,0.3,2.1,0.6,3.1h-3l-1.1-3.5h-0.3c-0.3,0.5-0.7,0.9-1.1,1.4c-0.5,0.5-1,0.9-1.6,1.2
				s-1.4,0.6-2.2,0.9c-0.8,0.2-1.8,0.4-2.9,0.4c-1.1,0-2.1-0.2-3-0.5c-0.9-0.3-1.7-0.8-2.4-1.4c-0.7-0.6-1.2-1.4-1.6-2.2
				c-0.4-0.9-0.6-1.9-0.6-3c0-1.5,0.3-2.7,0.9-3.7c0.6-1,1.4-1.8,2.5-2.4c1.1-0.6,2.4-1,3.9-1.3c1.5-0.3,3.2-0.4,5-0.4
				c0.5,0,0.9,0,1.4,0c0.5,0,0.9,0,1.4,0.1c0.1-1,0.2-1.9,0.2-2.7c0-1.8-0.4-3.1-1.1-3.9c-0.7-0.7-2.1-1.1-4-1.1
				c-0.6,0-1.2,0-1.8,0.1c-0.7,0.1-1.3,0.2-2,0.4c-0.7,0.2-1.3,0.3-2,0.6c-0.6,0.2-1.2,0.5-1.6,0.7L316,148.2z M323.1,168.3
				c0.9,0,1.8-0.1,2.5-0.4c0.7-0.3,1.4-0.6,1.9-1c0.5-0.4,1-0.8,1.3-1.3c0.4-0.5,0.6-0.9,0.8-1.4v-4.2c-0.5,0-0.9-0.1-1.4-0.1
				c-0.5,0-1,0-1.4,0c-1,0-2,0.1-3,0.2c-1,0.1-1.9,0.3-2.6,0.7c-0.8,0.3-1.4,0.8-1.8,1.3c-0.5,0.6-0.7,1.2-0.7,2.1
				c0,1.2,0.4,2.1,1.3,2.9C320.7,167.9,321.8,168.3,323.1,168.3z"/>
		</g>
		<g>
			<path fill="#4D4D4D" d="M345.7,165.2c0,1.2,0.2,2,0.6,2.5c0.4,0.5,1,0.8,1.7,0.8c0.4,0,0.9,0,1.4-0.1c0.5-0.1,1.1-0.2,1.7-0.5
				l0.5,3.2c-0.5,0.3-1.3,0.5-2.2,0.7c-1,0.2-1.8,0.3-2.5,0.3c-1.5,0-2.7-0.4-3.7-1.3c-1-0.9-1.5-2.3-1.5-4.3v-30.1h4V165.2z"/>
		</g>
		<g>
			<path fill="#4D4D4D" d="M374.2,169.4c-1,0.8-2.3,1.4-3.8,1.9c-1.5,0.5-3.1,0.7-4.8,0.7c-1.9,0-3.6-0.3-5-0.9
				c-1.4-0.6-2.6-1.5-3.5-2.7c-0.9-1.2-1.6-2.5-2-4.1s-0.7-3.4-0.7-5.4c0-4.3,1-7.5,2.9-9.8c1.9-2.2,4.6-3.4,8.2-3.4
				c1.1,0,2.3,0.1,3.4,0.4c1.1,0.3,2.2,0.7,3.1,1.4c0.9,0.7,1.6,1.7,2.2,3c0.6,1.3,0.9,3,0.9,5.1c0,1.1-0.1,2.3-0.3,3.7h-16.1
				c0,1.5,0.2,2.8,0.5,3.9c0.3,1.1,0.8,2.1,1.4,2.9c0.6,0.8,1.5,1.4,2.5,1.8c1,0.4,2.3,0.6,3.7,0.6c1.1,0,2.3-0.2,3.4-0.6
				c1.1-0.4,2-0.9,2.6-1.4L374.2,169.4z M365.6,149.2c-2,0-3.6,0.5-4.7,1.6c-1.2,1-1.9,2.8-2.1,5.3h12.4c0-2.5-0.5-4.3-1.5-5.3
				C368.7,149.7,367.4,149.2,365.6,149.2z"/>
		</g>
		<g>
			<path fill="#4D4D4D" d="M393.2,150.2c-1-0.3-2-0.5-2.9-0.5c-1.4,0-2.6,0.4-3.4,1.2c-0.8,0.8-1.4,1.8-1.6,3v17.6h-4v-25.1h2.8
				l0.8,3.1h0.2c0.6-1.1,1.4-2,2.3-2.6c0.9-0.6,2-0.9,3.4-0.9c1,0,2.1,0.2,3.3,0.5L393.2,150.2z"/>
		</g>
		<g>
			<path fill="#4D4D4D" d="M398,148.2c1.3-0.8,2.8-1.3,4.4-1.7c1.7-0.4,3.5-0.6,5.3-0.6c1.7,0,3.1,0.2,4.2,0.7
				c1.1,0.5,1.9,1.1,2.4,1.8c0.6,0.8,0.9,1.6,1.1,2.5s0.3,1.8,0.3,2.7c0,2,0,4-0.2,5.9c-0.1,1.9-0.2,3.7-0.2,5.4
				c0,1.2,0,2.4,0.2,3.5c0.1,1.1,0.3,2.1,0.6,3.1h-3l-1.1-3.5h-0.3c-0.3,0.5-0.7,0.9-1.1,1.4c-0.5,0.5-1,0.9-1.6,1.2
				s-1.4,0.6-2.2,0.9c-0.8,0.2-1.8,0.4-2.9,0.4c-1.1,0-2.1-0.2-3-0.5c-0.9-0.3-1.7-0.8-2.4-1.4c-0.7-0.6-1.2-1.4-1.6-2.2
				c-0.4-0.9-0.6-1.9-0.6-3c0-1.5,0.3-2.7,0.9-3.7c0.6-1,1.4-1.8,2.5-2.4c1.1-0.6,2.4-1,3.9-1.3c1.5-0.3,3.2-0.4,5-0.4
				c0.5,0,0.9,0,1.4,0c0.5,0,0.9,0,1.4,0.1c0.1-1,0.2-1.9,0.2-2.7c0-1.8-0.4-3.1-1.1-3.9c-0.7-0.7-2.1-1.1-4-1.1
				c-0.6,0-1.2,0-1.8,0.1c-0.7,0.1-1.3,0.2-2,0.4c-0.7,0.2-1.3,0.3-2,0.6c-0.6,0.2-1.2,0.5-1.6,0.7L398,148.2z M405.2,168.3
				c0.9,0,1.8-0.1,2.5-0.4c0.7-0.3,1.4-0.6,1.9-1c0.5-0.4,1-0.8,1.3-1.3c0.4-0.5,0.6-0.9,0.8-1.4v-4.2c-0.5,0-0.9-0.1-1.4-0.1
				c-0.5,0-1,0-1.4,0c-1,0-2,0.1-3,0.2c-1,0.1-1.9,0.3-2.6,0.7c-0.8,0.3-1.4,0.8-1.8,1.3c-0.5,0.6-0.7,1.2-0.7,2.1
				c0,1.2,0.4,2.1,1.3,2.9C402.8,167.9,403.9,168.3,405.2,168.3z"/>
		</g>
		<g>
			<path fill="#4D4D4D" d="M425,169.1c0-0.9,0.3-1.6,0.8-2.1c0.5-0.5,1.2-0.8,2.1-0.8c0.9,0,1.6,0.3,2.2,0.8
				c0.5,0.5,0.8,1.2,0.8,2.1c0,0.9-0.3,1.6-0.8,2.1c-0.5,0.5-1.3,0.8-2.2,0.8c-0.9,0-1.6-0.3-2.1-0.8
				C425.2,170.6,425,169.9,425,169.1z M425.8,136.3h4.2v17.4l-0.9,8.8h-2.5l-0.9-8.8V136.3z"/>
		</g>
	</g>
</g>
</svg>
